<svg xmlns="http://www.w3.org/2000/svg" width="1425" height="1520" baseProfile="full"><text x="750" y="20" font-size="15" text-anchor="middle">Call showing all callback - this is far from complete</text><text x="75" y="60" font-size="15" text-anchor="middle">Alice&apos;s Turn</text><line width="1" x1="75" x2="75" y1="80" y2="1440" stroke="#000"/><text x="75" y="1480" font-size="15" text-anchor="middle">Alice&apos;s Turn</text><text x="225" y="60" font-size="15" text-anchor="middle">Alice&apos;s Browser</text><line width="1" x1="225" x2="225" y1="80" y2="1440" stroke="#000"/><text x="225" y="1480" font-size="15" text-anchor="middle">Alice&apos;s Browser</text><text x="375" y="60" font-size="15" text-anchor="middle">Alice&apos;s App</text><line width="1" x1="375" x2="375" y1="80" y2="1440" stroke="#000"/><text x="375" y="1480" font-size="15" text-anchor="middle">Alice&apos;s App</text><text x="525" y="60" font-size="15" text-anchor="middle">Alice</text><line width="1" x1="525" x2="525" y1="80" y2="1440" stroke="#000"/><text x="525" y="1480" font-size="15" text-anchor="middle">Alice</text><text x="675" y="60" font-size="15" text-anchor="middle">Web Server</text><line width="1" x1="675" x2="675" y1="80" y2="1440" stroke="#000"/><text x="675" y="1480" font-size="15" text-anchor="middle">Web Server</text><text x="825" y="60" font-size="15" text-anchor="middle">Bob</text><line width="1" x1="825" x2="825" y1="80" y2="1440" stroke="#000"/><text x="825" y="1480" font-size="15" text-anchor="middle">Bob</text><text x="975" y="60" font-size="15" text-anchor="middle">Bob&apos;s App</text><line width="1" x1="975" x2="975" y1="80" y2="1440" stroke="#000"/><text x="975" y="1480" font-size="15" text-anchor="middle">Bob&apos;s App</text><text x="1125" y="60" font-size="15" text-anchor="middle">Bob&apos;s Browse</text><line width="1" x1="1125" x2="1125" y1="80" y2="1440" stroke="#000"/><text x="1125" y="1480" font-size="15" text-anchor="middle">Bob&apos;s Browse</text><text x="1275" y="60" font-size="15" text-anchor="middle">Bob&apos;s Turn</text><line width="1" x1="1275" x2="1275" y1="80" y2="1440" stroke="#000"/><text x="1275" y="1480" font-size="15" text-anchor="middle">Bob&apos;s Turn</text><line width="1" x1="225" x2="675" y1="120" y2="120" stroke="#000"/><line width="1" x1="675" x2="668" y1="120" y2="113" stroke="#000" transform="rotate(0, 675, 120)"/><line width="1" x1="675" x2="668" y1="120" y2="127" stroke="#000" transform="rotate(0, 675, 120)"/><line width="1" x1="225" x2="232" y1="120" y2="113" stroke="#000" transform="rotate(0, 225, 120)"/><line width="1" x1="225" x2="232" y1="120" y2="127" stroke="#000" transform="rotate(0, 225, 120)"/><text x="450" y="117" fill="#000" font-size="15" text-anchor="middle" transform="rotate(0, 450, 117)">1. Load Page</text><line width="1" x1="225" x2="675" y1="140" y2="140" stroke="#000"/><line width="1" x1="675" x2="668" y1="140" y2="133" stroke="#000" transform="rotate(0, 675, 140)"/><line width="1" x1="675" x2="668" y1="140" y2="147" stroke="#000" transform="rotate(0, 675, 140)"/><line width="1" x1="225" x2="232" y1="140" y2="133" stroke="#000" transform="rotate(0, 225, 140)"/><line width="1" x1="225" x2="232" y1="140" y2="147" stroke="#000" transform="rotate(0, 225, 140)"/><text x="450" y="137" fill="#000" font-size="15" text-anchor="middle" transform="rotate(0, 450, 137)">2. Authenticate</text><line width="1" x1="375" x2="225" y1="160" y2="160" stroke="#000"/><line width="1" x1="225" x2="232" y1="160" y2="153" stroke="#000" transform="rotate(0, 225, 160)"/><line width="1" x1="225" x2="232" y1="160" y2="167" stroke="#000" transform="rotate(0, 225, 160)"/><text x="372" y="157" fill="#000" font-size="15" text-anchor="end" transform="rotate(0, 372, 157)">3. create PeerConnection()</text><line width="1" x1="225" x2="75" y1="180" y2="180" stroke="#000"/><line width="1" x1="75" x2="82" y1="180" y2="173" stroke="#000" transform="rotate(0, 75, 180)"/><line width="1" x1="75" x2="82" y1="180" y2="187" stroke="#000" transform="rotate(0, 75, 180)"/><text x="222" y="177" fill="#000" font-size="15" text-anchor="end" transform="rotate(0, 222, 177)">4. Alloc (pair 1)</text><line width="1" x1="225" x2="75" y1="200" y2="200" stroke="#000"/><line width="1" x1="75" x2="82" y1="200" y2="193" stroke="#000" transform="rotate(0, 75, 200)"/><line width="1" x1="75" x2="82" y1="200" y2="207" stroke="#000" transform="rotate(0, 75, 200)"/><text x="222" y="197" fill="#000" font-size="15" text-anchor="end" transform="rotate(0, 222, 197)">5. Alloc (pair 2)</text><line width="1" x1="225" x2="75" y1="220" y2="220" stroke="#000"/><line width="1" x1="75" x2="82" y1="220" y2="213" stroke="#000" transform="rotate(0, 75, 220)"/><line width="1" x1="75" x2="82" y1="220" y2="227" stroke="#000" transform="rotate(0, 75, 220)"/><text x="222" y="217" fill="#000" font-size="15" text-anchor="end" transform="rotate(0, 222, 217)">6. Alloc (pair 3)</text><line width="1" x1="75" x2="225" y1="240" y2="240" stroke="#000"/><line width="1" x1="225" x2="218" y1="240" y2="233" stroke="#000" transform="rotate(0, 225, 240)"/><line width="1" x1="225" x2="218" y1="240" y2="247" stroke="#000" transform="rotate(0, 225, 240)"/><text x="78" y="237" fill="#000" font-size="15" text-anchor="start" transform="rotate(0, 78, 237)">7. IPs and Ports (pair 1)</text><line width="1" x1="225" x2="375" y1="260" y2="260" stroke="#000"/><line width="1" x1="375" x2="368" y1="260" y2="253" stroke="#000" transform="rotate(0, 375, 260)"/><line width="1" x1="375" x2="368" y1="260" y2="267" stroke="#000" transform="rotate(0, 375, 260)"/><text x="228" y="257" fill="#000" font-size="15" text-anchor="start" transform="rotate(0, 228, 257)">8. onIceCandiate</text><line width="1" x1="75" x2="225" y1="280" y2="280" stroke="#000"/><line width="1" x1="225" x2="218" y1="280" y2="273" stroke="#000" transform="rotate(0, 225, 280)"/><line width="1" x1="225" x2="218" y1="280" y2="287" stroke="#000" transform="rotate(0, 225, 280)"/><text x="78" y="277" fill="#000" font-size="15" text-anchor="start" transform="rotate(0, 78, 277)">9. IPs and Ports (pair 2)</text><line width="1" x1="225" x2="375" y1="300" y2="300" stroke="#000"/><line width="1" x1="375" x2="368" y1="300" y2="293" stroke="#000" transform="rotate(0, 375, 300)"/><line width="1" x1="375" x2="368" y1="300" y2="307" stroke="#000" transform="rotate(0, 375, 300)"/><text x="228" y="297" fill="#000" font-size="15" text-anchor="start" transform="rotate(0, 228, 297)">10. onIceCandiate</text><line width="1" x1="75" x2="225" y1="320" y2="320" stroke="#000"/><line width="1" x1="225" x2="218" y1="320" y2="313" stroke="#000" transform="rotate(0, 225, 320)"/><line width="1" x1="225" x2="218" y1="320" y2="327" stroke="#000" transform="rotate(0, 225, 320)"/><text x="78" y="317" fill="#000" font-size="15" text-anchor="start" transform="rotate(0, 78, 317)">11. IPs and Ports (pair 3)</text><line width="1" x1="225" x2="375" y1="340" y2="340" stroke="#000"/><line width="1" x1="375" x2="368" y1="340" y2="333" stroke="#000" transform="rotate(0, 375, 340)"/><line width="1" x1="375" x2="368" y1="340" y2="347" stroke="#000" transform="rotate(0, 375, 340)"/><text x="228" y="337" fill="#000" font-size="15" text-anchor="start" transform="rotate(0, 228, 337)">12. onIceCandiate</text><line width="1" x1="1125" x2="675" y1="360" y2="360" stroke="#000"/><line width="1" x1="1125" x2="1118" y1="360" y2="353" stroke="#000" transform="rotate(0, 1125, 360)"/><line width="1" x1="1125" x2="1118" y1="360" y2="367" stroke="#000" transform="rotate(0, 1125, 360)"/><line width="1" x1="675" x2="682" y1="360" y2="353" stroke="#000" transform="rotate(0, 675, 360)"/><line width="1" x1="675" x2="682" y1="360" y2="367" stroke="#000" transform="rotate(0, 675, 360)"/><text x="900" y="357" fill="#000" font-size="15" text-anchor="middle" transform="rotate(0, 900, 357)">13. Load Page</text><line width="1" x1="1125" x2="675" y1="380" y2="380" stroke="#000"/><line width="1" x1="1125" x2="1118" y1="380" y2="373" stroke="#000" transform="rotate(0, 1125, 380)"/><line width="1" x1="1125" x2="1118" y1="380" y2="387" stroke="#000" transform="rotate(0, 1125, 380)"/><line width="1" x1="675" x2="682" y1="380" y2="373" stroke="#000" transform="rotate(0, 675, 380)"/><line width="1" x1="675" x2="682" y1="380" y2="387" stroke="#000" transform="rotate(0, 675, 380)"/><text x="900" y="377" fill="#000" font-size="15" text-anchor="middle" transform="rotate(0, 900, 377)">14. Authenticate</text><line width="1" x1="975" x2="1125" y1="400" y2="400" stroke="#000"/><line width="1" x1="1125" x2="1118" y1="400" y2="393" stroke="#000" transform="rotate(0, 1125, 400)"/><line width="1" x1="1125" x2="1118" y1="400" y2="407" stroke="#000" transform="rotate(0, 1125, 400)"/><text x="978" y="397" fill="#000" font-size="15" text-anchor="start" transform="rotate(0, 978, 397)">15. create PeerConnection()</text><line width="1" x1="1125" x2="1275" y1="420" y2="420" stroke="#000"/><line width="1" x1="1275" x2="1268" y1="420" y2="413" stroke="#000" transform="rotate(0, 1275, 420)"/><line width="1" x1="1275" x2="1268" y1="420" y2="427" stroke="#000" transform="rotate(0, 1275, 420)"/><text x="1128" y="417" fill="#000" font-size="15" text-anchor="start" transform="rotate(0, 1128, 417)">16. Alloc</text><line width="1" x1="1125" x2="1275" y1="440" y2="440" stroke="#000"/><line width="1" x1="1275" x2="1268" y1="440" y2="433" stroke="#000" transform="rotate(0, 1275, 440)"/><line width="1" x1="1275" x2="1268" y1="440" y2="447" stroke="#000" transform="rotate(0, 1275, 440)"/><text x="1128" y="437" fill="#000" font-size="15" text-anchor="start" transform="rotate(0, 1128, 437)">17. Alloc</text><line width="1" x1="1125" x2="1275" y1="460" y2="460" stroke="#000"/><line width="1" x1="1275" x2="1268" y1="460" y2="453" stroke="#000" transform="rotate(0, 1275, 460)"/><line width="1" x1="1275" x2="1268" y1="460" y2="467" stroke="#000" transform="rotate(0, 1275, 460)"/><text x="1128" y="457" fill="#000" font-size="15" text-anchor="start" transform="rotate(0, 1128, 457)">18. Alloc</text><line width="1" x1="1275" x2="1125" y1="480" y2="480" stroke="#000"/><line width="1" x1="1125" x2="1132" y1="480" y2="473" stroke="#000" transform="rotate(0, 1125, 480)"/><line width="1" x1="1125" x2="1132" y1="480" y2="487" stroke="#000" transform="rotate(0, 1125, 480)"/><text x="1272" y="477" fill="#000" font-size="15" text-anchor="end" transform="rotate(0, 1272, 477)">19. IPs and Ports</text><line width="1" x1="1275" x2="1125" y1="500" y2="500" stroke="#000"/><line width="1" x1="1125" x2="1132" y1="500" y2="493" stroke="#000" transform="rotate(0, 1125, 500)"/><line width="1" x1="1125" x2="1132" y1="500" y2="507" stroke="#000" transform="rotate(0, 1125, 500)"/><text x="1272" y="497" fill="#000" font-size="15" text-anchor="end" transform="rotate(0, 1272, 497)">20. IPs and Ports</text><line width="1" x1="1275" x2="1125" y1="520" y2="520" stroke="#000"/><line width="1" x1="1125" x2="1132" y1="520" y2="513" stroke="#000" transform="rotate(0, 1125, 520)"/><line width="1" x1="1125" x2="1132" y1="520" y2="527" stroke="#000" transform="rotate(0, 1125, 520)"/><text x="1272" y="517" fill="#000" font-size="15" text-anchor="end" transform="rotate(0, 1272, 517)">21. IPs and Ports</text><line width="1" x1="525" x2="375" y1="540" y2="540" stroke="#000"/><line width="1" x1="375" x2="382" y1="540" y2="533" stroke="#000" transform="rotate(0, 375, 540)"/><line width="1" x1="375" x2="382" y1="540" y2="547" stroke="#000" transform="rotate(0, 375, 540)"/><text x="522" y="537" fill="#000" font-size="15" text-anchor="end" transform="rotate(0, 522, 537)">22. Call Bob</text><line width="1" x1="375" x2="225" y1="560" y2="560" stroke="#000"/><line width="1" x1="225" x2="232" y1="560" y2="553" stroke="#000" transform="rotate(0, 225, 560)"/><line width="1" x1="225" x2="232" y1="560" y2="567" stroke="#000" transform="rotate(0, 225, 560)"/><text x="372" y="557" fill="#000" font-size="15" text-anchor="end" transform="rotate(0, 372, 557)">23. addStream( data )</text><line width="1" x1="225" x2="375" y1="580" y2="580" stroke="#000"/><line width="1" x1="375" x2="368" y1="580" y2="573" stroke="#000" transform="rotate(0, 375, 580)"/><line width="1" x1="375" x2="368" y1="580" y2="587" stroke="#000" transform="rotate(0, 375, 580)"/><text x="228" y="577" fill="#000" font-size="15" text-anchor="start" transform="rotate(0, 228, 577)">24. onRenegotationNeeed</text><line width="1" x1="375" x2="225" y1="600" y2="600" stroke="#000"/><line width="1" x1="225" x2="232" y1="600" y2="593" stroke="#000" transform="rotate(0, 225, 600)"/><line width="1" x1="225" x2="232" y1="600" y2="607" stroke="#000" transform="rotate(0, 225, 600)"/><text x="372" y="597" fill="#000" font-size="15" text-anchor="end" transform="rotate(0, 372, 597)">25. addStream( audio/video )</text><line width="1" x1="225" x2="375" y1="620" y2="620" stroke="#000"/><line width="1" x1="375" x2="368" y1="620" y2="613" stroke="#000" transform="rotate(0, 375, 620)"/><line width="1" x1="375" x2="368" y1="620" y2="627" stroke="#000" transform="rotate(0, 375, 620)"/><text x="228" y="617" fill="#000" font-size="15" text-anchor="start" transform="rotate(0, 228, 617)">26. onRenegotationNeeed</text><line width="1" x1="375" x2="225" y1="640" y2="640" stroke="#000"/><line width="1" x1="225" x2="232" y1="640" y2="633" stroke="#000" transform="rotate(0, 225, 640)"/><line width="1" x1="225" x2="232" y1="640" y2="647" stroke="#000" transform="rotate(0, 225, 640)"/><text x="372" y="637" fill="#000" font-size="15" text-anchor="end" transform="rotate(0, 372, 637)">27. createOffer</text><line width="1" x1="225" x2="375" y1="660" y2="660" stroke="#000"/><line width="1" x1="375" x2="368" y1="660" y2="653" stroke="#000" transform="rotate(0, 375, 660)"/><line width="1" x1="375" x2="368" y1="660" y2="667" stroke="#000" transform="rotate(0, 375, 660)"/><text x="228" y="657" fill="#000" font-size="15" text-anchor="start" transform="rotate(0, 228, 657)">28. offer</text><line width="1" x1="375" x2="225" y1="680" y2="680" stroke="#000"/><line width="1" x1="225" x2="232" y1="680" y2="673" stroke="#000" transform="rotate(0, 225, 680)"/><line width="1" x1="225" x2="232" y1="680" y2="687" stroke="#000" transform="rotate(0, 225, 680)"/><text x="372" y="677" fill="#000" font-size="15" text-anchor="end" transform="rotate(0, 372, 677)">29. setLocal</text><line width="1" x1="375" x2="675" y1="700" y2="700" stroke="#000"/><line width="1" x1="675" x2="668" y1="700" y2="693" stroke="#000" transform="rotate(0, 675, 700)"/><line width="1" x1="675" x2="668" y1="700" y2="707" stroke="#000" transform="rotate(0, 675, 700)"/><text x="378" y="697" fill="#000" font-size="15" text-anchor="start" transform="rotate(0, 378, 697)">30. Offer to Bob</text><line width="1" x1="675" x2="975" y1="720" y2="720" stroke="#000"/><line width="1" x1="975" x2="968" y1="720" y2="713" stroke="#000" transform="rotate(0, 975, 720)"/><line width="1" x1="975" x2="968" y1="720" y2="727" stroke="#000" transform="rotate(0, 975, 720)"/><text x="678" y="717" fill="#000" font-size="15" text-anchor="start" transform="rotate(0, 678, 717)">31. Offer</text><line width="1" x1="975" x2="1125" y1="740" y2="740" stroke="#000"/><line width="1" x1="1125" x2="1118" y1="740" y2="733" stroke="#000" transform="rotate(0, 1125, 740)"/><line width="1" x1="1125" x2="1118" y1="740" y2="747" stroke="#000" transform="rotate(0, 1125, 740)"/><text x="978" y="737" fill="#000" font-size="15" text-anchor="start" transform="rotate(0, 978, 737)">32. SetRemote</text><line width="1" x1="1125" x2="975" y1="760" y2="760" stroke="#000"/><line width="1" x1="975" x2="982" y1="760" y2="753" stroke="#000" transform="rotate(0, 975, 760)"/><line width="1" x1="975" x2="982" y1="760" y2="767" stroke="#000" transform="rotate(0, 975, 760)"/><text x="1122" y="757" fill="#000" font-size="15" text-anchor="end" transform="rotate(0, 1122, 757)">33. TBD Remote has audio, video, and data</text><line width="1" x1="975" x2="825" y1="780" y2="780" stroke="#000"/><line width="1" x1="825" x2="832" y1="780" y2="773" stroke="#000" transform="rotate(0, 825, 780)"/><line width="1" x1="825" x2="832" y1="780" y2="787" stroke="#000" transform="rotate(0, 825, 780)"/><text x="972" y="777" fill="#000" font-size="15" text-anchor="end" transform="rotate(0, 972, 777)">34. Phones Ringing Dude</text><line width="1" x1="975" x2="1125" y1="800" y2="800" stroke="#000"/><line width="1" x1="1125" x2="1118" y1="800" y2="793" stroke="#000" transform="rotate(0, 1125, 800)"/><line width="1" x1="1125" x2="1118" y1="800" y2="807" stroke="#000" transform="rotate(0, 1125, 800)"/><text x="978" y="797" fill="#000" font-size="15" text-anchor="start" transform="rotate(0, 978, 797)">35. addStream( data )</text><line width="1" x1="975" x2="1125" y1="820" y2="820" stroke="#000"/><line width="1" x1="1125" x2="1118" y1="820" y2="813" stroke="#000" transform="rotate(0, 1125, 820)"/><line width="1" x1="1125" x2="1118" y1="820" y2="827" stroke="#000" transform="rotate(0, 1125, 820)"/><text x="978" y="817" fill="#000" font-size="15" text-anchor="start" transform="rotate(0, 978, 817)">36. createAnswer( Provisional, RelayOnly )</text><line width="1" x1="1125" x2="975" y1="840" y2="840" stroke="#000"/><line width="1" x1="975" x2="982" y1="840" y2="833" stroke="#000" transform="rotate(0, 975, 840)"/><line width="1" x1="975" x2="982" y1="840" y2="847" stroke="#000" transform="rotate(0, 975, 840)"/><text x="1122" y="837" fill="#000" font-size="15" text-anchor="end" transform="rotate(0, 1122, 837)">37. PR_Answer</text><line width="1" x1="975" x2="1125" y1="860" y2="860" stroke="#000"/><line width="1" x1="1125" x2="1118" y1="860" y2="853" stroke="#000" transform="rotate(0, 1125, 860)"/><line width="1" x1="1125" x2="1118" y1="860" y2="867" stroke="#000" transform="rotate(0, 1125, 860)"/><text x="978" y="857" fill="#000" font-size="15" text-anchor="start" transform="rotate(0, 978, 857)">38. setLocal</text><line width="1" x1="975" x2="675" y1="880" y2="880" stroke="#000"/><line width="1" x1="675" x2="682" y1="880" y2="873" stroke="#000" transform="rotate(0, 675, 880)"/><line width="1" x1="675" x2="682" y1="880" y2="887" stroke="#000" transform="rotate(0, 675, 880)"/><text x="972" y="877" fill="#000" font-size="15" text-anchor="end" transform="rotate(0, 972, 877)">39. PR_Answer to Alice</text><line width="1" x1="1125" x2="1275" y1="880" y2="880" stroke="#000"/><line width="1" x1="1275" x2="1268" y1="880" y2="873" stroke="#000" transform="rotate(0, 1275, 880)"/><line width="1" x1="1275" x2="1268" y1="880" y2="887" stroke="#000" transform="rotate(0, 1275, 880)"/><text x="1128" y="877" fill="#000" font-size="15" text-anchor="start" transform="rotate(0, 1128, 877)">40. Permission</text><line width="1" x1="1125" x2="1275" y1="900" y2="900" stroke="#000"/><line width="1" x1="1275" x2="1268" y1="900" y2="893" stroke="#000" transform="rotate(0, 1275, 900)"/><line width="1" x1="1275" x2="1268" y1="900" y2="907" stroke="#000" transform="rotate(0, 1275, 900)"/><text x="1128" y="897" fill="#000" font-size="15" text-anchor="start" transform="rotate(0, 1128, 897)">41. De-Alloc (RTCP port of pair1)</text><line width="1" x1="1125" x2="1275" y1="920" y2="920" stroke="#000"/><line width="1" x1="1275" x2="1268" y1="920" y2="913" stroke="#000" transform="rotate(0, 1275, 920)"/><line width="1" x1="1275" x2="1268" y1="920" y2="927" stroke="#000" transform="rotate(0, 1275, 920)"/><text x="1128" y="917" fill="#000" font-size="15" text-anchor="start" transform="rotate(0, 1128, 917)">42. De-Alloc (pair 2)</text><line width="1" x1="1125" x2="1275" y1="940" y2="940" stroke="#000"/><line width="1" x1="1275" x2="1268" y1="940" y2="933" stroke="#000" transform="rotate(0, 1275, 940)"/><line width="1" x1="1275" x2="1268" y1="940" y2="947" stroke="#000" transform="rotate(0, 1275, 940)"/><text x="1128" y="937" fill="#000" font-size="15" text-anchor="start" transform="rotate(0, 1128, 937)">43. De-Alloc (pair 3)</text><line width="1" x1="1125" x2="975" y1="960" y2="960" stroke="#000"/><line width="1" x1="975" x2="982" y1="960" y2="953" stroke="#000" transform="rotate(0, 975, 960)"/><line width="1" x1="975" x2="982" y1="960" y2="967" stroke="#000" transform="rotate(0, 975, 960)"/><text x="1122" y="957" fill="#000" font-size="15" text-anchor="end" transform="rotate(0, 1122, 957)">44. onRemoteStream( data )</text><line width="1" x1="1125" x2="1275" y1="980" y2="980" stroke="#000"/><line width="1" x1="1275" x2="1268" y1="980" y2="973" stroke="#000" transform="rotate(0, 1275, 980)"/><line width="1" x1="1275" x2="1268" y1="980" y2="987" stroke="#000" transform="rotate(0, 1275, 980)"/><line width="1" x1="1125" x2="1132" y1="980" y2="973" stroke="#000" transform="rotate(0, 1125, 980)"/><line width="1" x1="1125" x2="1132" y1="980" y2="987" stroke="#000" transform="rotate(0, 1125, 980)"/><text x="1200" y="977" fill="#000" font-size="15" text-anchor="middle" transform="rotate(0, 1200, 977)">45. ICE Check</text><line width="1" x1="1275" x2="225" y1="1000" y2="1000" stroke="#000"/><line width="1" x1="1275" x2="1268" y1="1000" y2="993" stroke="#000" transform="rotate(0, 1275, 1000)"/><line width="1" x1="1275" x2="1268" y1="1000" y2="1007" stroke="#000" transform="rotate(0, 1275, 1000)"/><line width="1" x1="225" x2="232" y1="1000" y2="993" stroke="#000" transform="rotate(0, 225, 1000)"/><line width="1" x1="225" x2="232" y1="1000" y2="1007" stroke="#000" transform="rotate(0, 225, 1000)"/><text x="750" y="997" fill="#000" font-size="15" text-anchor="middle" transform="rotate(0, 750, 997)">46. ICE Check</text><line width="1" x1="1125" x2="1275" y1="1020" y2="1020" stroke="#000"/><line width="1" x1="1275" x2="1268" y1="1020" y2="1013" stroke="#000" transform="rotate(0, 1275, 1020)"/><line width="1" x1="1275" x2="1268" y1="1020" y2="1027" stroke="#000" transform="rotate(0, 1275, 1020)"/><line width="1" x1="1125" x2="1132" y1="1020" y2="1013" stroke="#000" transform="rotate(0, 1125, 1020)"/><line width="1" x1="1125" x2="1132" y1="1020" y2="1027" stroke="#000" transform="rotate(0, 1125, 1020)"/><text x="1200" y="1017" fill="#000" font-size="15" text-anchor="middle" transform="rotate(0, 1200, 1017)">47. DTLS</text><line width="1" x1="1275" x2="225" y1="1040" y2="1040" stroke="#000"/><line width="1" x1="1275" x2="1268" y1="1040" y2="1033" stroke="#000" transform="rotate(0, 1275, 1040)"/><line width="1" x1="1275" x2="1268" y1="1040" y2="1047" stroke="#000" transform="rotate(0, 1275, 1040)"/><line width="1" x1="225" x2="232" y1="1040" y2="1033" stroke="#000" transform="rotate(0, 225, 1040)"/><line width="1" x1="225" x2="232" y1="1040" y2="1047" stroke="#000" transform="rotate(0, 225, 1040)"/><text x="750" y="1037" fill="#000" font-size="15" text-anchor="middle" transform="rotate(0, 750, 1037)">48. DTLS</text><line width="1" x1="1125" x2="1275" y1="1060" y2="1060" stroke="#000"/><line width="1" x1="1275" x2="1268" y1="1060" y2="1053" stroke="#000" transform="rotate(0, 1275, 1060)"/><line width="1" x1="1275" x2="1268" y1="1060" y2="1067" stroke="#000" transform="rotate(0, 1275, 1060)"/><line width="1" x1="1125" x2="1132" y1="1060" y2="1053" stroke="#000" transform="rotate(0, 1125, 1060)"/><line width="1" x1="1125" x2="1132" y1="1060" y2="1067" stroke="#000" transform="rotate(0, 1125, 1060)"/><text x="1200" y="1057" fill="#000" font-size="15" text-anchor="middle" transform="rotate(0, 1200, 1057)">49. SCTP/Data</text><line width="1" x1="1275" x2="225" y1="1080" y2="1080" stroke="#000"/><line width="1" x1="1275" x2="1268" y1="1080" y2="1073" stroke="#000" transform="rotate(0, 1275, 1080)"/><line width="1" x1="1275" x2="1268" y1="1080" y2="1087" stroke="#000" transform="rotate(0, 1275, 1080)"/><line width="1" x1="225" x2="232" y1="1080" y2="1073" stroke="#000" transform="rotate(0, 225, 1080)"/><line width="1" x1="225" x2="232" y1="1080" y2="1087" stroke="#000" transform="rotate(0, 225, 1080)"/><text x="750" y="1077" fill="#000" font-size="15" text-anchor="middle" transform="rotate(0, 750, 1077)">50. SCTP/Data</text><line width="1" x1="225" x2="375" y1="1100" y2="1100" stroke="#000"/><line width="1" x1="375" x2="368" y1="1100" y2="1093" stroke="#000" transform="rotate(0, 375, 1100)"/><line width="1" x1="375" x2="368" y1="1100" y2="1107" stroke="#000" transform="rotate(0, 375, 1100)"/><text x="228" y="1097" fill="#000" font-size="15" text-anchor="start" transform="rotate(0, 228, 1097)">51. onRemoteStream( data )</text><line width="1" x1="675" x2="525" y1="1120" y2="1120" stroke="#000"/><line width="1" x1="675" x2="668" y1="1120" y2="1113" stroke="#000" transform="rotate(0, 675, 1120)"/><line width="1" x1="675" x2="668" y1="1120" y2="1127" stroke="#000" transform="rotate(0, 675, 1120)"/><line width="1" x1="525" x2="532" y1="1120" y2="1113" stroke="#000" transform="rotate(0, 525, 1120)"/><line width="1" x1="525" x2="532" y1="1120" y2="1127" stroke="#000" transform="rotate(0, 525, 1120)"/><text x="600" y="1117" fill="#000" font-size="15" text-anchor="middle" transform="rotate(0, 600, 1117)">52. time passes - remove later</text><line width="1" x1="675" x2="375" y1="880" y2="1120" stroke="#000"/><line width="1" x1="375" x2="382" y1="1120" y2="1113" stroke="#000" transform="rotate(-38.67941707013997, 375, 1120)"/><line width="1" x1="375" x2="382" y1="1120" y2="1127" stroke="#000" transform="rotate(-38.67941707013997, 375, 1120)"/><text x="672" y="877" fill="#000" font-size="15" text-anchor="end" transform="rotate(-38.67941707013997, 672, 877)">53. PR_Answer</text><line width="1" x1="375" x2="225" y1="1140" y2="1140" stroke="#000"/><line width="1" x1="225" x2="232" y1="1140" y2="1133" stroke="#000" transform="rotate(0, 225, 1140)"/><line width="1" x1="225" x2="232" y1="1140" y2="1147" stroke="#000" transform="rotate(0, 225, 1140)"/><text x="372" y="1137" fill="#000" font-size="15" text-anchor="end" transform="rotate(0, 372, 1137)">54. setRemote</text><line width="1" x1="225" x2="75" y1="1160" y2="1160" stroke="#000"/><line width="1" x1="75" x2="82" y1="1160" y2="1153" stroke="#000" transform="rotate(0, 75, 1160)"/><line width="1" x1="75" x2="82" y1="1160" y2="1167" stroke="#000" transform="rotate(0, 75, 1160)"/><text x="222" y="1157" fill="#000" font-size="15" text-anchor="end" transform="rotate(0, 222, 1157)">55. Permission</text><line width="1" x1="825" x2="975" y1="1180" y2="1180" stroke="#000"/><line width="1" x1="975" x2="968" y1="1180" y2="1173" stroke="#000" transform="rotate(0, 975, 1180)"/><line width="1" x1="975" x2="968" y1="1180" y2="1187" stroke="#000" transform="rotate(0, 975, 1180)"/><text x="828" y="1177" fill="#000" font-size="15" text-anchor="start" transform="rotate(0, 828, 1177)">56. Accept Audio and Video</text><line width="1" x1="975" x2="1125" y1="1200" y2="1200" stroke="#000"/><line width="1" x1="1125" x2="1118" y1="1200" y2="1193" stroke="#000" transform="rotate(0, 1125, 1200)"/><line width="1" x1="1125" x2="1118" y1="1200" y2="1207" stroke="#000" transform="rotate(0, 1125, 1200)"/><text x="978" y="1197" fill="#000" font-size="15" text-anchor="start" transform="rotate(0, 978, 1197)">57. addStream( audio/video )</text><line width="1" x1="975" x2="1125" y1="1220" y2="1220" stroke="#000"/><line width="1" x1="1125" x2="1118" y1="1220" y2="1213" stroke="#000" transform="rotate(0, 1125, 1220)"/><line width="1" x1="1125" x2="1118" y1="1220" y2="1227" stroke="#000" transform="rotate(0, 1125, 1220)"/><text x="978" y="1217" fill="#000" font-size="15" text-anchor="start" transform="rotate(0, 978, 1217)">58. createAnswer</text><line width="1" x1="1125" x2="975" y1="1240" y2="1240" stroke="#000"/><line width="1" x1="975" x2="982" y1="1240" y2="1233" stroke="#000" transform="rotate(0, 975, 1240)"/><line width="1" x1="975" x2="982" y1="1240" y2="1247" stroke="#000" transform="rotate(0, 975, 1240)"/><text x="1122" y="1237" fill="#000" font-size="15" text-anchor="end" transform="rotate(0, 1122, 1237)">59. Answer</text><line width="1" x1="975" x2="1125" y1="1260" y2="1260" stroke="#000"/><line width="1" x1="1125" x2="1118" y1="1260" y2="1253" stroke="#000" transform="rotate(0, 1125, 1260)"/><line width="1" x1="1125" x2="1118" y1="1260" y2="1267" stroke="#000" transform="rotate(0, 1125, 1260)"/><text x="978" y="1257" fill="#000" font-size="15" text-anchor="start" transform="rotate(0, 978, 1257)">60. setLocal</text><line width="1" x1="975" x2="675" y1="1280" y2="1280" stroke="#000"/><line width="1" x1="675" x2="682" y1="1280" y2="1273" stroke="#000" transform="rotate(0, 675, 1280)"/><line width="1" x1="675" x2="682" y1="1280" y2="1287" stroke="#000" transform="rotate(0, 675, 1280)"/><text x="972" y="1277" fill="#000" font-size="15" text-anchor="end" transform="rotate(0, 972, 1277)">61. Answer to Alice</text><line width="1" x1="1125" x2="975" y1="1300" y2="1300" stroke="#000"/><line width="1" x1="975" x2="982" y1="1300" y2="1293" stroke="#000" transform="rotate(0, 975, 1300)"/><line width="1" x1="975" x2="982" y1="1300" y2="1307" stroke="#000" transform="rotate(0, 975, 1300)"/><text x="1122" y="1297" fill="#000" font-size="15" text-anchor="end" transform="rotate(0, 1122, 1297)">62. onRemoteStream( audio/video )</text><line width="1" x1="1125" x2="1275" y1="1320" y2="1320" stroke="#000"/><line width="1" x1="1275" x2="1268" y1="1320" y2="1313" stroke="#000" transform="rotate(0, 1275, 1320)"/><line width="1" x1="1275" x2="1268" y1="1320" y2="1327" stroke="#000" transform="rotate(0, 1275, 1320)"/><line width="1" x1="1125" x2="1132" y1="1320" y2="1313" stroke="#000" transform="rotate(0, 1125, 1320)"/><line width="1" x1="1125" x2="1132" y1="1320" y2="1327" stroke="#000" transform="rotate(0, 1125, 1320)"/><text x="1200" y="1317" fill="#000" font-size="15" text-anchor="middle" transform="rotate(0, 1200, 1317)">63. RTP/Data</text><line width="1" x1="1275" x2="225" y1="1340" y2="1340" stroke="#000"/><line width="1" x1="1275" x2="1268" y1="1340" y2="1333" stroke="#000" transform="rotate(0, 1275, 1340)"/><line width="1" x1="1275" x2="1268" y1="1340" y2="1347" stroke="#000" transform="rotate(0, 1275, 1340)"/><line width="1" x1="225" x2="232" y1="1340" y2="1333" stroke="#000" transform="rotate(0, 225, 1340)"/><line width="1" x1="225" x2="232" y1="1340" y2="1347" stroke="#000" transform="rotate(0, 225, 1340)"/><text x="750" y="1337" fill="#000" font-size="15" text-anchor="middle" transform="rotate(0, 750, 1337)">64. RTP/Data</text><line width="1" x1="1125" x2="225" y1="1360" y2="1360" stroke="#000"/><line width="1" x1="1125" x2="1118" y1="1360" y2="1353" stroke="#000" transform="rotate(0, 1125, 1360)"/><line width="1" x1="1125" x2="1118" y1="1360" y2="1367" stroke="#000" transform="rotate(0, 1125, 1360)"/><line width="1" x1="225" x2="232" y1="1360" y2="1353" stroke="#000" transform="rotate(0, 225, 1360)"/><line width="1" x1="225" x2="232" y1="1360" y2="1367" stroke="#000" transform="rotate(0, 225, 1360)"/><text x="675" y="1357" fill="#000" font-size="15" text-anchor="middle" transform="rotate(0, 675, 1357)">65. ICE Check</text><line width="1" x1="1125" x2="225" y1="1380" y2="1380" stroke="#000"/><line width="1" x1="1125" x2="1118" y1="1380" y2="1373" stroke="#000" transform="rotate(0, 1125, 1380)"/><line width="1" x1="1125" x2="1118" y1="1380" y2="1387" stroke="#000" transform="rotate(0, 1125, 1380)"/><line width="1" x1="225" x2="232" y1="1380" y2="1373" stroke="#000" transform="rotate(0, 225, 1380)"/><line width="1" x1="225" x2="232" y1="1380" y2="1387" stroke="#000" transform="rotate(0, 225, 1380)"/><text x="675" y="1377" fill="#000" font-size="15" text-anchor="middle" transform="rotate(0, 675, 1377)">66. RTP/Data</text><line width="1" x1="675" x2="525" y1="1400" y2="1400" stroke="#000"/><line width="1" x1="675" x2="668" y1="1400" y2="1393" stroke="#000" transform="rotate(0, 675, 1400)"/><line width="1" x1="675" x2="668" y1="1400" y2="1407" stroke="#000" transform="rotate(0, 675, 1400)"/><line width="1" x1="525" x2="532" y1="1400" y2="1393" stroke="#000" transform="rotate(0, 525, 1400)"/><line width="1" x1="525" x2="532" y1="1400" y2="1407" stroke="#000" transform="rotate(0, 525, 1400)"/><text x="600" y="1397" fill="#000" font-size="15" text-anchor="middle" transform="rotate(0, 600, 1397)">67. time passes - remove later</text><line width="1" x1="675" x2="375" y1="1280" y2="1400" stroke="#000"/><line width="1" x1="375" x2="382" y1="1400" y2="1393" stroke="#000" transform="rotate(-21.812467477778878, 375, 1400)"/><line width="1" x1="375" x2="382" y1="1400" y2="1407" stroke="#000" transform="rotate(-21.812467477778878, 375, 1400)"/><text x="672" y="1277" fill="#000" font-size="15" text-anchor="end" transform="rotate(-21.812467477778878, 672, 1277)">68. Answer</text><line width="1" x1="375" x2="225" y1="1420" y2="1420" stroke="#000"/><line width="1" x1="225" x2="232" y1="1420" y2="1413" stroke="#000" transform="rotate(0, 225, 1420)"/><line width="1" x1="225" x2="232" y1="1420" y2="1427" stroke="#000" transform="rotate(0, 225, 1420)"/><text x="372" y="1417" fill="#000" font-size="15" text-anchor="end" transform="rotate(0, 372, 1417)">69. setRemote</text></svg>