<svg xmlns="http://www.w3.org/2000/svg" width="975" height="720" baseProfile="full"><text x="525" y="20" font-size="15" text-anchor="middle">Simple hangout where media set is overlapped with hair check</text><text x="75" y="60" font-size="15" text-anchor="middle">Alice</text><line width="1" x1="75" x2="75" y1="80" y2="640" stroke="#000"/><text x="75" y="680" font-size="15" text-anchor="middle">Alice</text><text x="225" y="60" font-size="15" text-anchor="middle">Alice&apos;s Browser</text><line width="1" x1="225" x2="225" y1="80" y2="640" stroke="#000"/><text x="225" y="680" font-size="15" text-anchor="middle">Alice&apos;s Browser</text><text x="375" y="60" font-size="15" text-anchor="middle">Alice&apos;s App</text><line width="1" x1="375" x2="375" y1="80" y2="640" stroke="#000"/><text x="375" y="680" font-size="15" text-anchor="middle">Alice&apos;s App</text><text x="525" y="60" font-size="15" text-anchor="middle">Alice&apos;s Turn</text><line width="1" x1="525" x2="525" y1="80" y2="640" stroke="#000"/><text x="525" y="680" font-size="15" text-anchor="middle">Alice&apos;s Turn</text><text x="675" y="60" font-size="15" text-anchor="middle">Web Server Browse</text><line width="1" x1="675" x2="675" y1="80" y2="640" stroke="#000"/><text x="675" y="680" font-size="15" text-anchor="middle">Web Server Browse</text><text x="825" y="60" font-size="15" text-anchor="middle">Media Switch</text><line width="1" x1="825" x2="825" y1="80" y2="640" stroke="#000"/><text x="825" y="680" font-size="15" text-anchor="middle">Media Switch</text><line width="1" x1="225" x2="675" y1="120" y2="120" stroke="#000"/><line width="1" x1="675" x2="668" y1="120" y2="113" stroke="#000" transform="rotate(0, 675, 120)"/><line width="1" x1="675" x2="668" y1="120" y2="127" stroke="#000" transform="rotate(0, 675, 120)"/><line width="1" x1="225" x2="232" y1="120" y2="113" stroke="#000" transform="rotate(0, 225, 120)"/><line width="1" x1="225" x2="232" y1="120" y2="127" stroke="#000" transform="rotate(0, 225, 120)"/><text x="450" y="117" fill="#000" font-size="15" text-anchor="middle" transform="rotate(0, 450, 117)">1. Load Page</text><line width="1" x1="375" x2="675" y1="140" y2="140" stroke="#000"/><line width="1" x1="675" x2="668" y1="140" y2="133" stroke="#000" transform="rotate(0, 675, 140)"/><line width="1" x1="675" x2="668" y1="140" y2="147" stroke="#000" transform="rotate(0, 675, 140)"/><line width="1" x1="375" x2="382" y1="140" y2="133" stroke="#000" transform="rotate(0, 375, 140)"/><line width="1" x1="375" x2="382" y1="140" y2="147" stroke="#000" transform="rotate(0, 375, 140)"/><text x="525" y="137" fill="#000" font-size="15" text-anchor="middle" transform="rotate(0, 525, 137)">2. Authenticate</text><line width="1" x1="675" x2="825" y1="160" y2="160" stroke="#000"/><line width="1" x1="825" x2="818" y1="160" y2="153" stroke="#000" transform="rotate(0, 825, 160)"/><line width="1" x1="825" x2="818" y1="160" y2="167" stroke="#000" transform="rotate(0, 825, 160)"/><line width="1" x1="675" x2="682" y1="160" y2="153" stroke="#000" transform="rotate(0, 675, 160)"/><line width="1" x1="675" x2="682" y1="160" y2="167" stroke="#000" transform="rotate(0, 675, 160)"/><text x="750" y="157" fill="#000" font-size="15" text-anchor="middle" transform="rotate(0, 750, 157)">3. stuff</text><line width="1" x1="675" x2="375" y1="180" y2="180" stroke="#000"/><line width="1" x1="375" x2="382" y1="180" y2="173" stroke="#000" transform="rotate(0, 375, 180)"/><line width="1" x1="375" x2="382" y1="180" y2="187" stroke="#000" transform="rotate(0, 375, 180)"/><text x="672" y="177" fill="#000" font-size="15" text-anchor="end" transform="rotate(0, 672, 177)">4. Offer</text><line width="1" x1="375" x2="75" y1="200" y2="200" stroke="#000"/><line width="1" x1="75" x2="82" y1="200" y2="193" stroke="#000" transform="rotate(0, 75, 200)"/><line width="1" x1="75" x2="82" y1="200" y2="207" stroke="#000" transform="rotate(0, 75, 200)"/><text x="372" y="197" fill="#000" font-size="15" text-anchor="end" transform="rotate(0, 372, 197)">5. Check Hair</text><line width="1" x1="375" x2="225" y1="220" y2="220" stroke="#000"/><line width="1" x1="225" x2="232" y1="220" y2="213" stroke="#000" transform="rotate(0, 225, 220)"/><line width="1" x1="225" x2="232" y1="220" y2="227" stroke="#000" transform="rotate(0, 225, 220)"/><text x="372" y="217" fill="#000" font-size="15" text-anchor="end" transform="rotate(0, 372, 217)">6. create PeerConnection()</text><line width="1" x1="225" x2="525" y1="240" y2="240" stroke="#000"/><line width="1" x1="525" x2="518" y1="240" y2="233" stroke="#000" transform="rotate(0, 525, 240)"/><line width="1" x1="525" x2="518" y1="240" y2="247" stroke="#000" transform="rotate(0, 525, 240)"/><text x="228" y="237" fill="#000" font-size="15" text-anchor="start" transform="rotate(0, 228, 237)">7. Alloc</text><line width="1" x1="375" x2="225" y1="260" y2="260" stroke="#000"/><line width="1" x1="225" x2="232" y1="260" y2="253" stroke="#000" transform="rotate(0, 225, 260)"/><line width="1" x1="225" x2="232" y1="260" y2="267" stroke="#000" transform="rotate(0, 225, 260)"/><text x="372" y="257" fill="#000" font-size="15" text-anchor="end" transform="rotate(0, 372, 257)">8. SetRemote( Offer )</text><line width="1" x1="375" x2="225" y1="280" y2="280" stroke="#000"/><line width="1" x1="225" x2="232" y1="280" y2="273" stroke="#000" transform="rotate(0, 225, 280)"/><line width="1" x1="225" x2="232" y1="280" y2="287" stroke="#000" transform="rotate(0, 225, 280)"/><text x="372" y="277" fill="#000" font-size="15" text-anchor="end" transform="rotate(0, 372, 277)">9. createAnswer( Provisional )</text><line width="1" x1="525" x2="225" y1="300" y2="300" stroke="#000"/><line width="1" x1="225" x2="232" y1="300" y2="293" stroke="#000" transform="rotate(0, 225, 300)"/><line width="1" x1="225" x2="232" y1="300" y2="307" stroke="#000" transform="rotate(0, 225, 300)"/><text x="522" y="297" fill="#000" font-size="15" text-anchor="end" transform="rotate(0, 522, 297)">10. IPs and Ports</text><line width="1" x1="225" x2="375" y1="320" y2="320" stroke="#000"/><line width="1" x1="375" x2="368" y1="320" y2="313" stroke="#000" transform="rotate(0, 375, 320)"/><line width="1" x1="375" x2="368" y1="320" y2="327" stroke="#000" transform="rotate(0, 375, 320)"/><text x="228" y="317" fill="#000" font-size="15" text-anchor="start" transform="rotate(0, 228, 317)">11. answer</text><line width="1" x1="375" x2="225" y1="340" y2="340" stroke="#000"/><line width="1" x1="225" x2="232" y1="340" y2="333" stroke="#000" transform="rotate(0, 225, 340)"/><line width="1" x1="225" x2="232" y1="340" y2="347" stroke="#000" transform="rotate(0, 225, 340)"/><text x="372" y="337" fill="#000" font-size="15" text-anchor="end" transform="rotate(0, 372, 337)">12. setLocal</text><line width="1" x1="225" x2="375" y1="360" y2="360" stroke="#000"/><line width="1" x1="375" x2="368" y1="360" y2="353" stroke="#000" transform="rotate(0, 375, 360)"/><line width="1" x1="375" x2="368" y1="360" y2="367" stroke="#000" transform="rotate(0, 375, 360)"/><text x="228" y="357" fill="#000" font-size="15" text-anchor="start" transform="rotate(0, 228, 357)">13. onRemoteStream main</text><line width="1" x1="225" x2="375" y1="380" y2="380" stroke="#000"/><line width="1" x1="375" x2="368" y1="380" y2="373" stroke="#000" transform="rotate(0, 375, 380)"/><line width="1" x1="375" x2="368" y1="380" y2="387" stroke="#000" transform="rotate(0, 375, 380)"/><text x="228" y="377" fill="#000" font-size="15" text-anchor="start" transform="rotate(0, 228, 377)">14. onRemoteStream thumbnail one</text><line width="1" x1="225" x2="375" y1="400" y2="400" stroke="#000"/><line width="1" x1="375" x2="368" y1="400" y2="393" stroke="#000" transform="rotate(0, 375, 400)"/><line width="1" x1="375" x2="368" y1="400" y2="407" stroke="#000" transform="rotate(0, 375, 400)"/><text x="228" y="397" fill="#000" font-size="15" text-anchor="start" transform="rotate(0, 228, 397)">15. onRemoteStream thumbnail two</text><line width="1" x1="225" x2="825" y1="420" y2="420" stroke="#000"/><line width="1" x1="825" x2="818" y1="420" y2="413" stroke="#000" transform="rotate(0, 825, 420)"/><line width="1" x1="825" x2="818" y1="420" y2="427" stroke="#000" transform="rotate(0, 825, 420)"/><line width="1" x1="225" x2="232" y1="420" y2="413" stroke="#000" transform="rotate(0, 225, 420)"/><line width="1" x1="225" x2="232" y1="420" y2="427" stroke="#000" transform="rotate(0, 225, 420)"/><text x="525" y="417" fill="#000" font-size="15" text-anchor="middle" transform="rotate(0, 525, 417)">16. ICE</text><line width="1" x1="675" x2="825" y1="440" y2="440" stroke="#000"/><line width="1" x1="825" x2="818" y1="440" y2="433" stroke="#000" transform="rotate(0, 825, 440)"/><line width="1" x1="825" x2="818" y1="440" y2="447" stroke="#000" transform="rotate(0, 825, 440)"/><text x="678" y="437" fill="#000" font-size="15" text-anchor="start" transform="rotate(0, 678, 437)">17. stuff</text><line width="1" x1="375" x2="675" y1="340" y2="440" stroke="#000"/><line width="1" x1="675" x2="668" y1="440" y2="433" stroke="#000" transform="rotate(18.4442992966228, 675, 440)"/><line width="1" x1="675" x2="668" y1="440" y2="447" stroke="#000" transform="rotate(18.4442992966228, 675, 440)"/><text x="378" y="337" fill="#000" font-size="15" text-anchor="start" transform="rotate(18.4442992966228, 378, 337)">18. answer</text><line width="1" x1="225" x2="825" y1="460" y2="460" stroke="#000"/><line width="1" x1="825" x2="818" y1="460" y2="453" stroke="#000" transform="rotate(0, 825, 460)"/><line width="1" x1="825" x2="818" y1="460" y2="467" stroke="#000" transform="rotate(0, 825, 460)"/><line width="1" x1="225" x2="232" y1="460" y2="453" stroke="#000" transform="rotate(0, 225, 460)"/><line width="1" x1="225" x2="232" y1="460" y2="467" stroke="#000" transform="rotate(0, 225, 460)"/><text x="525" y="457" fill="#000" font-size="15" text-anchor="middle" transform="rotate(0, 525, 457)">19. DTLS</text><line width="1" x1="225" x2="825" y1="480" y2="480" stroke="#000"/><line width="1" x1="825" x2="818" y1="480" y2="473" stroke="#000" transform="rotate(0, 825, 480)"/><line width="1" x1="825" x2="818" y1="480" y2="487" stroke="#000" transform="rotate(0, 825, 480)"/><line width="1" x1="225" x2="232" y1="480" y2="473" stroke="#000" transform="rotate(0, 225, 480)"/><line width="1" x1="225" x2="232" y1="480" y2="487" stroke="#000" transform="rotate(0, 225, 480)"/><text x="525" y="477" fill="#000" font-size="15" text-anchor="middle" transform="rotate(0, 525, 477)">20. SRTP</text><line width="1" x1="75" x2="375" y1="500" y2="500" stroke="#000"/><line width="1" x1="375" x2="368" y1="500" y2="493" stroke="#000" transform="rotate(0, 375, 500)"/><line width="1" x1="375" x2="368" y1="500" y2="507" stroke="#000" transform="rotate(0, 375, 500)"/><text x="78" y="497" fill="#000" font-size="15" text-anchor="start" transform="rotate(0, 78, 497)">21. Hair is fluffy</text><line width="1" x1="375" x2="225" y1="520" y2="520" stroke="#000"/><line width="1" x1="225" x2="232" y1="520" y2="513" stroke="#000" transform="rotate(0, 225, 520)"/><line width="1" x1="225" x2="232" y1="520" y2="527" stroke="#000" transform="rotate(0, 225, 520)"/><text x="372" y="517" fill="#000" font-size="15" text-anchor="end" transform="rotate(0, 372, 517)">22. addStream audio/video</text><line width="1" x1="375" x2="225" y1="540" y2="540" stroke="#000"/><line width="1" x1="225" x2="232" y1="540" y2="533" stroke="#000" transform="rotate(0, 225, 540)"/><line width="1" x1="225" x2="232" y1="540" y2="547" stroke="#000" transform="rotate(0, 225, 540)"/><text x="372" y="537" fill="#000" font-size="15" text-anchor="end" transform="rotate(0, 372, 537)">23. createAnswer</text><line width="1" x1="225" x2="375" y1="560" y2="560" stroke="#000"/><line width="1" x1="375" x2="368" y1="560" y2="553" stroke="#000" transform="rotate(0, 375, 560)"/><line width="1" x1="375" x2="368" y1="560" y2="567" stroke="#000" transform="rotate(0, 375, 560)"/><text x="228" y="557" fill="#000" font-size="15" text-anchor="start" transform="rotate(0, 228, 557)">24. answer</text><line width="1" x1="375" x2="225" y1="580" y2="580" stroke="#000"/><line width="1" x1="225" x2="232" y1="580" y2="573" stroke="#000" transform="rotate(0, 225, 580)"/><line width="1" x1="225" x2="232" y1="580" y2="587" stroke="#000" transform="rotate(0, 225, 580)"/><text x="372" y="577" fill="#000" font-size="15" text-anchor="end" transform="rotate(0, 372, 577)">25. setLocal</text><line width="1" x1="675" x2="825" y1="600" y2="600" stroke="#000"/><line width="1" x1="825" x2="818" y1="600" y2="593" stroke="#000" transform="rotate(0, 825, 600)"/><line width="1" x1="825" x2="818" y1="600" y2="607" stroke="#000" transform="rotate(0, 825, 600)"/><text x="678" y="597" fill="#000" font-size="15" text-anchor="start" transform="rotate(0, 678, 597)">26. stuff</text><line width="1" x1="375" x2="675" y1="580" y2="600" stroke="#000"/><line width="1" x1="675" x2="668" y1="600" y2="593" stroke="#000" transform="rotate(3.816009388423021, 675, 600)"/><line width="1" x1="675" x2="668" y1="600" y2="607" stroke="#000" transform="rotate(3.816009388423021, 675, 600)"/><text x="378" y="577" fill="#000" font-size="15" text-anchor="start" transform="rotate(3.816009388423021, 378, 577)">27. answer</text><line width="1" x1="225" x2="825" y1="620" y2="620" stroke="#000"/><line width="1" x1="825" x2="818" y1="620" y2="613" stroke="#000" transform="rotate(0, 825, 620)"/><line width="1" x1="825" x2="818" y1="620" y2="627" stroke="#000" transform="rotate(0, 825, 620)"/><line width="1" x1="225" x2="232" y1="620" y2="613" stroke="#000" transform="rotate(0, 225, 620)"/><line width="1" x1="225" x2="232" y1="620" y2="627" stroke="#000" transform="rotate(0, 225, 620)"/><text x="525" y="617" fill="#000" font-size="15" text-anchor="middle" transform="rotate(0, 525, 617)">28. SRTP</text></svg>