<svg xmlns="http://www.w3.org/2000/svg" xmlns:svg="http://www.w3.org/2000/svg" id="Layer_1" width="612" height="300" x="0" y="0" enable-background="new 0 0 612 300" version="1.1" viewBox="0 0 612 300" xml:space="preserve"><metadata id="metadata3567"/><path id="path3387" fill="#CFE2F3" d="M10.713,11.457h81.583v52.895H10.713V11.457z"/><path id="path3389" fill="none" stroke="#000" stroke-linejoin="round" stroke-miterlimit="10" stroke-width="2" d="M10.713,11.457h81.583 v52.895H10.713V11.457z"/><path id="path3393" fill="#CFE2F3" d="M341.021,183.561h86.156v52.744h-86.156V183.561L341.021,183.561z"/><path id="path3395" fill="none" stroke="#000" stroke-linejoin="round" stroke-miterlimit="10" stroke-width="2" d="M341.021,183.561h86.156 v52.744h-86.156V183.561L341.021,183.561z"/><path id="path3399" fill="#CFE2F3" d="M340.82,45.256h81.486V93.37H340.82V45.256z"/><path id="path3401" fill="none" stroke="#000" stroke-linejoin="round" stroke-miterlimit="10" stroke-width="2" d="M340.82,45.256h81.486 V93.37H340.82V45.256z"/><path id="path3405" fill="#CFE2F3" d="M507.861,45.256h91.146V93.37h-91.145L507.861,45.256L507.861,45.256z"/><path id="path3407" fill="none" stroke="#000" stroke-linejoin="round" stroke-miterlimit="10" stroke-width="2" d="M507.861,45.256h91.146 V93.37h-91.145L507.861,45.256L507.861,45.256z"/><path id="path3411" fill="#CFE2F3" d="M178.258,45.256h81.583V93.37h-81.583V45.256z"/><path id="path3413" fill="none" stroke="#000" stroke-linejoin="round" stroke-miterlimit="10" stroke-width="2" d="M178.258,45.256h81.583 V93.37h-81.583V45.256z"/><path id="path3417" fill="#CFE2F3" d="M178.258,184.014h86.364v52.5h-86.364V184.014L178.258,184.014z"/><path id="path3419" fill="none" stroke="#000" stroke-linejoin="round" stroke-miterlimit="10" stroke-width="2" d="M178.258,184.014h86.364 v52.5h-86.364V184.014L178.258,184.014z"/><path id="path3423" fill="none" stroke="#000" stroke-linejoin="round" stroke-miterlimit="10" stroke-width="2" d="M259.841,69.313h73.809"/><path id="path3425" stroke="#000" stroke-miterlimit="10" stroke-width="2" d="M333.648,71.287l5.426-1.975l-5.426-1.974V71.287z"/><path id="path3427" stroke="#000" stroke-miterlimit="10" stroke-width="2" d="M219.277,176.896l2.117,5.371l1.831-5.477L219.277,176.896z"/><path id="path3429" fill="none" stroke="#000" stroke-linejoin="round" stroke-miterlimit="10" stroke-width="2" d="M422.309,69.313h78.385"/><path id="path3431" stroke="#000" stroke-miterlimit="10" stroke-width="2" d="M500.691,71.287l5.424-1.975l-5.424-1.974V71.287z"/><path id="path3433" fill="none" stroke="#000" stroke-linejoin="round" stroke-miterlimit="10" stroke-width="2" d="M553.436,93.37 L432.449,205.066"/><path id="path3435" stroke="#000" stroke-miterlimit="10" stroke-width="2" d="M431.109,203.616l-2.646,5.13l5.326-2.229L431.109,203.616z"/><path id="path3437" stroke="#000" stroke-miterlimit="10" stroke-width="2" d="M380.926,176.445l2.125,5.367l1.822-5.479L380.926,176.445z"/><path id="path3439" fill="#CFE2F3" d="M510.301,207.514h86.271v57.581h-86.271V207.514L510.301,207.514z"/><path id="path3441" fill="none" stroke="#000" stroke-linejoin="round" stroke-miterlimit="10" stroke-width="2" d="M510.301,207.514h86.271 v57.581h-86.271V207.514L510.301,207.514z"/><line id="line3451" x1="382.899" x2="382.899" y1="93.738" y2="179.074" fill="none" stroke="#000" stroke-linejoin="round" stroke-miterlimit="10" stroke-width="2"/><line id="line3453" x1="221.251" x2="221.251" y1="93.841" y2="179.178" fill="none" stroke="#000" stroke-linejoin="round" stroke-miterlimit="10" stroke-width="2"/><g id="g3455"><g id="g3457"><line id="line3459" x1="355.166" x2="355.166" y1="182.268" y2="100.546" fill="none" stroke="#000" stroke-linejoin="round" stroke-width="2"/><g id="g3461"><polygon id="polygon3463" points="360.124 102.005 355.139 93.37 350.152 102.005"/></g></g></g><g id="g3465"><g id="g3467"><line id="line3469" x1="264.072" x2="333.846" y1="198.971" y2="198.985" fill="none" stroke="#000" stroke-linejoin="round" stroke-width="2"/><g id="g3471"><polygon id="polygon3473" points="332.385 203.943 341.021 198.96 332.388 193.972"/></g></g></g><g id="g3475"><g id="g3477"><line id="line3479" x1="339.007" x2="271.704" y1="221.409" y2="220.447" fill="none" stroke="#000" stroke-linejoin="round" stroke-width="2"/><g id="g3481"><polygon id="polygon3483" points="273.234 215.511 264.528 220.372 273.091 225.481"/></g></g></g><g id="g3485"><g id="g3487"><line id="line3489" x1="428.463" x2="564.817" y1="225.312" y2="98.724" fill="none" stroke="#000" stroke-linejoin="round" stroke-width="2"/><g id="g3491"><polygon id="polygon3493" points="567.121 103.35 570.058 93.821 560.337 96.042"/></g></g></g><g id="g3495"><g id="g3497"><line id="line3499" x1="178.258" x2="74.352" y1="210.264" y2="70.492" fill="none" stroke="#000" stroke-linejoin="round" stroke-width="2"/><g id="g3501"><polygon id="polygon3503" points="79.202 68.705 70.049 64.749 71.199 74.654"/></g></g></g><line id="line3505" x1="384.1" x2="384.183" y1="238.135" y2="265.095" fill="none" stroke="#000" stroke-linejoin="round" stroke-miterlimit="10" stroke-width="2"/><line id="line3507" x1="384.183" x2="43.5" y1="265.095" y2="265.095" fill="none" stroke="#000" stroke-linejoin="round" stroke-miterlimit="10" stroke-width="2"/><g id="g3509"><g id="g3511"><line id="line3513" x1="43.5" x2="43.5" y1="265.095" y2="71.909" fill="none" stroke="#000" stroke-linejoin="round" stroke-width="2"/><g id="g3515"><polygon id="polygon3517" points="48.458 73.368 43.473 64.733 38.486 73.368"/></g></g></g><g id="g3519"><g id="g3521"><line id="line3523" x1="92.296" x2="171.082" y1="64.352" y2="64.352" fill="none" stroke="#000" stroke-linejoin="round" stroke-width="2"/><g id="g3525"><polygon id="polygon3527" points="169.623 69.31 178.258 64.325 169.623 59.338"/></g></g></g><g id="g3529"><g id="g3531"><line id="line3533" x1="178.258" x2="99.472" y1="50.5" y2="50.5" fill="none" stroke="#000" stroke-linejoin="round" stroke-width="2"/><g id="g3535"><polygon id="polygon3537" points="100.931 45.542 92.296 50.527 100.931 55.514"/></g></g></g><line id="line3539" x1="381.492" x2="381.492" y1="43.979" y2="33.327" fill="none" stroke="#000" stroke-linejoin="round" stroke-miterlimit="10" stroke-width="2"/><g id="g3541"><g id="g3543"><line id="line3545" x1="381.492" x2="99.472" y1="33.327" y2="33.327" fill="none" stroke="#000" stroke-linejoin="round" stroke-width="2"/><g id="g3547"><polygon id="polygon3549" points="100.931 28.369 92.296 33.354 100.931 38.341"/></g></g></g><line id="line3551" x1="553.525" x2="553.601" y1="43.979" y2="17.5" fill="none" stroke="#000" stroke-linejoin="round" stroke-miterlimit="10" stroke-width="2"/><g id="g3553"><g id="g3555"><line id="line3557" x1="553.601" x2="99.472" y1="17.5" y2="17.5" fill="none" stroke="#000" stroke-linejoin="round" stroke-width="2"/><g id="g3559"><polygon id="polygon3561" points="100.931 12.542 92.296 17.527 100.931 22.514"/></g></g></g><text style="font-size:13px;font-style:normal;font-variant:normal;font-weight:400;font-stretch:normal;line-height:125%;letter-spacing:0;word-spacing:0;fill:#000;fill-opacity:1;stroke:none;font-family:Monospace;-inkscape-font-specification:Monospace" id="text3569" x="41.052" y="40.907" xml:space="preserve"><tspan id="tspan3571" x="41.052" y="40.907" style="font-size:11px">new</tspan></text><text style="font-size:12px;font-style:normal;font-variant:normal;font-weight:400;font-stretch:normal;line-height:125%;letter-spacing:0;word-spacing:0;fill:#000;fill-opacity:1;stroke:none;font-family:Monospace;-inkscape-font-specification:Monospace" id="text3573" x="344.576" y="214.034" xml:space="preserve"><tspan id="tspan3575" x="344.576" y="214.034" style="font-size:11px">disconnected</tspan></text><text style="font-size:12px;font-style:normal;font-variant:normal;font-weight:400;font-stretch:normal;line-height:125%;letter-spacing:0;word-spacing:0;fill:#000;fill-opacity:1;stroke:none;font-family:Monospace;-inkscape-font-specification:Monospace" id="text3577" x="201.575" y="214.394" xml:space="preserve"><tspan id="tspan3579" x="201.575" y="214.394" style="font-size:11px">failed</tspan></text><text style="font-size:12px;font-style:normal;font-variant:normal;font-weight:400;font-stretch:normal;line-height:125%;letter-spacing:0;word-spacing:0;fill:#000;fill-opacity:1;stroke:none;font-family:Monospace;-inkscape-font-specification:Monospace" id="text3581" x="192.567" y="72.31" xml:space="preserve"><tspan id="tspan3583" x="192.567" y="72.31" style="font-size:11px">checking</tspan></text><text id="text3585" x="351.772" y="73.414" xml:space="preserve" style="font-size:12px;font-style:normal;font-variant:normal;font-weight:400;font-stretch:normal;line-height:125%;letter-spacing:0;word-spacing:0;fill:#000;fill-opacity:1;stroke:none;font-family:Monospace;-inkscape-font-specification:Monospace"><tspan style="font-size:11px" id="tspan3589" x="351.772" y="73.414">connected</tspan></text><text style="font-size:12px;font-style:normal;font-variant:normal;font-weight:400;font-stretch:normal;line-height:125%;letter-spacing:0;word-spacing:0;fill:#000;fill-opacity:1;stroke:none;font-family:Monospace;-inkscape-font-specification:Monospace" id="text3593" x="523.643" y="72.377" xml:space="preserve"><tspan id="tspan3595" x="523.643" y="72.377" style="font-size:11px">completed</tspan></text><text style="font-size:11px;font-style:normal;font-variant:normal;font-weight:400;font-stretch:normal;line-height:125%;letter-spacing:0;word-spacing:0;fill:#000;fill-opacity:1;stroke:none;font-family:Monospace;-inkscape-font-specification:Monospace" id="text3597" x="552.794" y="229.301" xml:space="preserve"><tspan id="tspan3599" x="552.794" y="229.301" style="text-align:center;text-anchor:middle">closed</tspan><tspan id="tspan3601" x="552.794" y="240.061" style="font-size:8px;text-align:center;text-anchor:middle">(reachable from</tspan><tspan id="tspan3603" x="552.794" y="250.061" style="font-size:8px;text-align:center;text-anchor:middle">any state)</tspan></text><flowRoot id="flowRoot3605" xml:space="preserve" style="fill:#000;stroke:none;stroke-opacity:1;stroke-width:1px;stroke-linejoin:miter;stroke-linecap:butt;fill-opacity:1;font-family:Monospace;font-style:normal;font-weight:400;font-size:11px;line-height:125%;letter-spacing:0;word-spacing:0;-inkscape-font-specification:Monospace;font-stretch:normal;font-variant:normal"><flowRegion id="flowRegion3607"><rect id="rect3609" width="68.496" height="26.307" x="266.044" y="327.299"/></flowRegion><flowPara id="flowPara3611"/></flowRoot></svg>