<svg xmlns="http://www.w3.org/2000/svg" xmlns:xlink="http://www.w3.org/1999/xlink" id="Layer_1" width="300" height="300" x="0" y="0" enable-background="new 0 0 300 300" version="1.1" viewBox="0 0 300 300" xml:space="preserve"><text font-family="'MyriadPro-Regular'" font-size="12" transform="matrix(1 0 0 1 39.0347 128.6133)">left</text><text font-family="'MyriadPro-Regular'" font-size="12" transform="matrix(1 0 0 1 96.4697 129.7793)">user</text><text font-family="'MyriadPro-Regular'" font-size="12" transform="matrix(1 0 0 1 156.2363 131.2373)">right</text><text font-family="'MyriadPro-Regular'" font-size="12" transform="matrix(1 0 0 1 75.4775 105.2896)">environment</text><g><line x1="49.531" x2="70.813" y1="131.237" y2="200.898" stroke="#000" stroke-miterlimit="10"/><line x1="42.854" x2="21.572" y1="131.407" y2="201.068" stroke="#000" stroke-miterlimit="10"/></g><g><line x1="107.269" x2="128.552" y1="131.406" y2="201.067" stroke="#000" stroke-miterlimit="10"/><line x1="100.592" x2="79.31" y1="131.575" y2="201.237" stroke="#000" stroke-miterlimit="10"/></g><g><line x1="169.44" x2="190.722" y1="133.635" y2="203.297" stroke="#000" stroke-miterlimit="10"/><line x1="162.763" x2="141.481" y1="133.804" y2="203.467" stroke="#000" stroke-miterlimit="10"/></g><g><line x1="101.424" x2="80.143" y1="95.534" y2="25.872" stroke="#000" stroke-miterlimit="10"/><line x1="108.102" x2="129.383" y1="95.364" y2="25.702" stroke="#000" stroke-miterlimit="10"/></g><ellipse cx="106.204" cy="240.013" fill="none" stroke="#000" stroke-miterlimit="10" rx="10.787" ry="10.203"/><text font-family="'MyriadPro-Regular'" font-size="12" transform="matrix(1 0 0 1 88.5977 259.8086)">person</text><text font-family="'MyriadPro-Regular'" font-size="12" transform="matrix(1 0 0 1 8.7783 14.1572)">Top down view</text></svg>