<svg xmlns="http://www.w3.org/2000/svg" width="1575" height="1460" baseProfile="full"><text x="825" y="20" font-size="15" text-anchor="middle">Simple Call Flow</text><text x="75" y="60" font-size="15" text-anchor="middle">Alice&apos;s Turn</text><line width="1" x1="75" x2="75" y1="80" y2="1380" stroke="#000"/><text x="75" y="1420" font-size="15" text-anchor="middle">Alice&apos;s Turn</text><text x="225" y="60" font-size="15" text-anchor="middle">Alice&apos;s Browser</text><line width="1" x1="225" x2="225" y1="80" y2="1380" stroke="#000"/><text x="225" y="1420" font-size="15" text-anchor="middle">Alice&apos;s Browser</text><text x="375" y="60" font-size="15" text-anchor="middle">Alice&apos;s App</text><line width="1" x1="375" x2="375" y1="80" y2="1380" stroke="#000"/><text x="375" y="1420" font-size="15" text-anchor="middle">Alice&apos;s App</text><text x="525" y="60" font-size="15" text-anchor="middle">Alice</text><line width="1" x1="525" x2="525" y1="80" y2="1380" stroke="#000"/><text x="525" y="1420" font-size="15" text-anchor="middle">Alice</text><text x="675" y="60" font-size="15" text-anchor="middle">Alice&apos;s Web Server</text><line width="1" x1="675" x2="675" y1="80" y2="1380" stroke="#000"/><text x="675" y="1420" font-size="15" text-anchor="middle">Alice&apos;s Web Server</text><text x="825" y="60" font-size="15" text-anchor="middle">Bob&apos;s Web Server</text><line width="1" x1="825" x2="825" y1="80" y2="1380" stroke="#000"/><text x="825" y="1420" font-size="15" text-anchor="middle">Bob&apos;s Web Server</text><text x="975" y="60" font-size="15" text-anchor="middle">Bob</text><line width="1" x1="975" x2="975" y1="80" y2="1380" stroke="#000"/><text x="975" y="1420" font-size="15" text-anchor="middle">Bob</text><text x="1125" y="60" font-size="15" text-anchor="middle">Bob&apos;s App</text><line width="1" x1="1125" x2="1125" y1="80" y2="1380" stroke="#000"/><text x="1125" y="1420" font-size="15" text-anchor="middle">Bob&apos;s App</text><text x="1275" y="60" font-size="15" text-anchor="middle">Bob&apos;s Browser</text><line width="1" x1="1275" x2="1275" y1="80" y2="1380" stroke="#000"/><text x="1275" y="1420" font-size="15" text-anchor="middle">Bob&apos;s Browser</text><text x="1425" y="60" font-size="15" text-anchor="middle">Bob&apos;s Turn</text><line width="1" x1="1425" x2="1425" y1="80" y2="1380" stroke="#000"/><text x="1425" y="1420" font-size="15" text-anchor="middle">Bob&apos;s Turn</text><line width="1" x1="225" x2="675" y1="120" y2="120" stroke="#000"/><line width="1" x1="675" x2="668" y1="120" y2="113" stroke="#000" transform="rotate(0, 675, 120)"/><line width="1" x1="675" x2="668" y1="120" y2="127" stroke="#000" transform="rotate(0, 675, 120)"/><line width="1" x1="225" x2="232" y1="120" y2="113" stroke="#000" transform="rotate(0, 225, 120)"/><line width="1" x1="225" x2="232" y1="120" y2="127" stroke="#000" transform="rotate(0, 225, 120)"/><text x="450" y="117" fill="#000" font-size="15" text-anchor="middle" transform="rotate(0, 450, 117)">1. Load Page</text><line width="1" x1="225" x2="675" y1="140" y2="140" stroke="#000"/><line width="1" x1="675" x2="668" y1="140" y2="133" stroke="#000" transform="rotate(0, 675, 140)"/><line width="1" x1="675" x2="668" y1="140" y2="147" stroke="#000" transform="rotate(0, 675, 140)"/><line width="1" x1="225" x2="232" y1="140" y2="133" stroke="#000" transform="rotate(0, 225, 140)"/><line width="1" x1="225" x2="232" y1="140" y2="147" stroke="#000" transform="rotate(0, 225, 140)"/><text x="450" y="137" fill="#000" font-size="15" text-anchor="middle" transform="rotate(0, 450, 137)">2. Authenticate</text><line width="1" x1="1275" x2="825" y1="160" y2="160" stroke="#000"/><line width="1" x1="1275" x2="1268" y1="160" y2="153" stroke="#000" transform="rotate(0, 1275, 160)"/><line width="1" x1="1275" x2="1268" y1="160" y2="167" stroke="#000" transform="rotate(0, 1275, 160)"/><line width="1" x1="825" x2="832" y1="160" y2="153" stroke="#000" transform="rotate(0, 825, 160)"/><line width="1" x1="825" x2="832" y1="160" y2="167" stroke="#000" transform="rotate(0, 825, 160)"/><text x="1050" y="157" fill="#000" font-size="15" text-anchor="middle" transform="rotate(0, 1050, 157)">3. Load Page</text><line width="1" x1="1275" x2="825" y1="180" y2="180" stroke="#000"/><line width="1" x1="1275" x2="1268" y1="180" y2="173" stroke="#000" transform="rotate(0, 1275, 180)"/><line width="1" x1="1275" x2="1268" y1="180" y2="187" stroke="#000" transform="rotate(0, 1275, 180)"/><line width="1" x1="825" x2="832" y1="180" y2="173" stroke="#000" transform="rotate(0, 825, 180)"/><line width="1" x1="825" x2="832" y1="180" y2="187" stroke="#000" transform="rotate(0, 825, 180)"/><text x="1050" y="177" fill="#000" font-size="15" text-anchor="middle" transform="rotate(0, 1050, 177)">4. Authenticate</text><line width="1" x1="525" x2="375" y1="200" y2="200" stroke="#000"/><line width="1" x1="375" x2="382" y1="200" y2="193" stroke="#000" transform="rotate(0, 375, 200)"/><line width="1" x1="375" x2="382" y1="200" y2="207" stroke="#000" transform="rotate(0, 375, 200)"/><text x="522" y="197" fill="#000" font-size="15" text-anchor="end" transform="rotate(0, 522, 197)">5. Call Bob</text><line width="1" x1="375" x2="225" y1="220" y2="220" stroke="#000"/><line width="1" x1="225" x2="232" y1="220" y2="213" stroke="#000" transform="rotate(0, 225, 220)"/><line width="1" x1="225" x2="232" y1="220" y2="227" stroke="#000" transform="rotate(0, 225, 220)"/><text x="372" y="217" fill="#000" font-size="15" text-anchor="end" transform="rotate(0, 372, 217)">6. new RTCPeerConnection()</text><line width="1" x1="375" x2="225" y1="240" y2="240" stroke="#000"/><line width="1" x1="225" x2="232" y1="240" y2="233" stroke="#000" transform="rotate(0, 225, 240)"/><line width="1" x1="225" x2="232" y1="240" y2="247" stroke="#000" transform="rotate(0, 225, 240)"/><text x="372" y="237" fill="#000" font-size="15" text-anchor="end" transform="rotate(0, 372, 237)">7. createDataChannel()</text><line width="1" x1="375" x2="225" y1="260" y2="260" stroke="#000"/><line width="1" x1="225" x2="232" y1="260" y2="253" stroke="#000" transform="rotate(0, 225, 260)"/><line width="1" x1="225" x2="232" y1="260" y2="267" stroke="#000" transform="rotate(0, 225, 260)"/><text x="372" y="257" fill="#000" font-size="15" text-anchor="end" transform="rotate(0, 372, 257)">8. addStream(stream)</text><line width="1" x1="225" x2="375" y1="280" y2="280" stroke="#000"/><line width="1" x1="375" x2="368" y1="280" y2="273" stroke="#000" transform="rotate(0, 375, 280)"/><line width="1" x1="375" x2="368" y1="280" y2="287" stroke="#000" transform="rotate(0, 375, 280)"/><text x="228" y="277" fill="#000" font-size="15" text-anchor="start" transform="rotate(0, 228, 277)">9. event: &quot;negotiationneeded&quot;</text><line width="1" x1="375" x2="225" y1="300" y2="300" stroke="#000"/><line width="1" x1="225" x2="232" y1="300" y2="293" stroke="#000" transform="rotate(0, 225, 300)"/><line width="1" x1="225" x2="232" y1="300" y2="307" stroke="#000" transform="rotate(0, 225, 300)"/><text x="372" y="297" fill="#000" font-size="15" text-anchor="end" transform="rotate(0, 372, 297)">10. createOffer(gotOffer)</text><line width="1" x1="225" x2="75" y1="320" y2="320" stroke="#000"/><line width="1" x1="75" x2="82" y1="320" y2="313" stroke="#000" transform="rotate(0, 75, 320)"/><line width="1" x1="75" x2="82" y1="320" y2="327" stroke="#000" transform="rotate(0, 75, 320)"/><text x="222" y="317" fill="#000" font-size="15" text-anchor="end" transform="rotate(0, 222, 317)">11. Alloc</text><line width="1" x1="75" x2="225" y1="340" y2="340" stroke="#000"/><line width="1" x1="225" x2="218" y1="340" y2="333" stroke="#000" transform="rotate(0, 225, 340)"/><line width="1" x1="225" x2="218" y1="340" y2="347" stroke="#000" transform="rotate(0, 225, 340)"/><text x="78" y="337" fill="#000" font-size="15" text-anchor="start" transform="rotate(0, 78, 337)">12. IPs and Ports</text><line width="1" x1="225" x2="375" y1="360" y2="360" stroke="#000"/><line width="1" x1="375" x2="368" y1="360" y2="353" stroke="#000" transform="rotate(0, 375, 360)"/><line width="1" x1="375" x2="368" y1="360" y2="367" stroke="#000" transform="rotate(0, 375, 360)"/><text x="228" y="357" fill="#000" font-size="15" text-anchor="start" transform="rotate(0, 228, 357)">13. callback: gotOffer(offer)</text><line width="1" x1="375" x2="225" y1="380" y2="380" stroke="#000"/><line width="1" x1="225" x2="232" y1="380" y2="373" stroke="#000" transform="rotate(0, 225, 380)"/><line width="1" x1="225" x2="232" y1="380" y2="387" stroke="#000" transform="rotate(0, 225, 380)"/><text x="372" y="377" fill="#000" font-size="15" text-anchor="end" transform="rotate(0, 372, 377)">14. setLocalDescription(offer)</text><line width="1" x1="375" x2="675" y1="400" y2="400" stroke="#000"/><line width="1" x1="675" x2="668" y1="400" y2="393" stroke="#000" transform="rotate(0, 675, 400)"/><line width="1" x1="675" x2="668" y1="400" y2="407" stroke="#000" transform="rotate(0, 675, 400)"/><text x="378" y="397" fill="#000" font-size="15" text-anchor="start" transform="rotate(0, 378, 397)">15. offer</text><line width="1" x1="675" x2="825" y1="400" y2="400" stroke="#000"/><line width="1" x1="825" x2="818" y1="400" y2="393" stroke="#000" transform="rotate(0, 825, 400)"/><line width="1" x1="825" x2="818" y1="400" y2="407" stroke="#000" transform="rotate(0, 825, 400)"/><text x="678" y="397" fill="#000" font-size="15" text-anchor="start" transform="rotate(0, 678, 397)">16. offer</text><line width="1" x1="825" x2="1125" y1="400" y2="400" stroke="#000"/><line width="1" x1="1125" x2="1118" y1="400" y2="393" stroke="#000" transform="rotate(0, 1125, 400)"/><line width="1" x1="1125" x2="1118" y1="400" y2="407" stroke="#000" transform="rotate(0, 1125, 400)"/><text x="828" y="397" fill="#000" font-size="15" text-anchor="start" transform="rotate(0, 828, 397)">17. offer</text><line width="1" x1="1125" x2="1275" y1="420" y2="420" stroke="#000"/><line width="1" x1="1275" x2="1268" y1="420" y2="413" stroke="#000" transform="rotate(0, 1275, 420)"/><line width="1" x1="1275" x2="1268" y1="420" y2="427" stroke="#000" transform="rotate(0, 1275, 420)"/><text x="1128" y="417" fill="#000" font-size="15" text-anchor="start" transform="rotate(0, 1128, 417)">18. new RTCPeerConnection()</text><line width="1" x1="1125" x2="1275" y1="440" y2="440" stroke="#000"/><line width="1" x1="1275" x2="1268" y1="440" y2="433" stroke="#000" transform="rotate(0, 1275, 440)"/><line width="1" x1="1275" x2="1268" y1="440" y2="447" stroke="#000" transform="rotate(0, 1275, 440)"/><text x="1128" y="437" fill="#000" font-size="15" text-anchor="start" transform="rotate(0, 1128, 437)">19. setRemoteDescription(offer)</text><line width="1" x1="1275" x2="1125" y1="460" y2="460" stroke="#000"/><line width="1" x1="1125" x2="1132" y1="460" y2="453" stroke="#000" transform="rotate(0, 1125, 460)"/><line width="1" x1="1125" x2="1132" y1="460" y2="467" stroke="#000" transform="rotate(0, 1125, 460)"/><text x="1272" y="457" fill="#000" font-size="15" text-anchor="end" transform="rotate(0, 1272, 457)">20. event: &quot;addstream&quot; with remoteStream</text><line width="1" x1="1125" x2="975" y1="480" y2="480" stroke="#000"/><line width="1" x1="975" x2="982" y1="480" y2="473" stroke="#000" transform="rotate(0, 975, 480)"/><line width="1" x1="975" x2="982" y1="480" y2="487" stroke="#000" transform="rotate(0, 975, 480)"/><text x="1122" y="477" fill="#000" font-size="15" text-anchor="end" transform="rotate(0, 1122, 477)">21. Phones Ringing Dude</text><line width="1" x1="1125" x2="1125" y1="500" y2="500" stroke="#000"/><line width="1" x1="1125" x2="1118" y1="500" y2="493" stroke="#000" transform="rotate(NaN, 1125, 500)"/><line width="1" x1="1125" x2="1118" y1="500" y2="507" stroke="#000" transform="rotate(NaN, 1125, 500)"/><line width="1" x1="1125" x2="1132" y1="500" y2="493" stroke="#000" transform="rotate(NaN, 1125, 500)"/><line width="1" x1="1125" x2="1132" y1="500" y2="507" stroke="#000" transform="rotate(NaN, 1125, 500)"/><text x="1125" y="497" fill="#000" font-size="15" text-anchor="middle" transform="rotate(NaN, 1125, 497)">22. constr = {iceTransports: &quot;relay&quot;}</text><line width="1" x1="1125" x2="1275" y1="520" y2="520" stroke="#000"/><line width="1" x1="1275" x2="1268" y1="520" y2="513" stroke="#000" transform="rotate(0, 1275, 520)"/><line width="1" x1="1275" x2="1268" y1="520" y2="527" stroke="#000" transform="rotate(0, 1275, 520)"/><text x="1128" y="517" fill="#000" font-size="15" text-anchor="start" transform="rotate(0, 1128, 517)">23. createAnswer(gotAnswer, constr)</text><line width="1" x1="1275" x2="1425" y1="540" y2="540" stroke="#000"/><line width="1" x1="1425" x2="1418" y1="540" y2="533" stroke="#000" transform="rotate(0, 1425, 540)"/><line width="1" x1="1425" x2="1418" y1="540" y2="547" stroke="#000" transform="rotate(0, 1425, 540)"/><text x="1278" y="537" fill="#000" font-size="15" text-anchor="start" transform="rotate(0, 1278, 537)">24. Alloc</text><line width="1" x1="1425" x2="1275" y1="560" y2="560" stroke="#000"/><line width="1" x1="1275" x2="1282" y1="560" y2="553" stroke="#000" transform="rotate(0, 1275, 560)"/><line width="1" x1="1275" x2="1282" y1="560" y2="567" stroke="#000" transform="rotate(0, 1275, 560)"/><text x="1422" y="557" fill="#000" font-size="15" text-anchor="end" transform="rotate(0, 1422, 557)">25. IPs and Ports</text><line width="1" x1="1275" x2="1125" y1="580" y2="580" stroke="#000"/><line width="1" x1="1125" x2="1132" y1="580" y2="573" stroke="#000" transform="rotate(0, 1125, 580)"/><line width="1" x1="1125" x2="1132" y1="580" y2="587" stroke="#000" transform="rotate(0, 1125, 580)"/><text x="1272" y="577" fill="#000" font-size="15" text-anchor="end" transform="rotate(0, 1272, 577)">26. callback: gotAnswer(answer)</text><line width="1" x1="1125" x2="1125" y1="600" y2="600" stroke="#000"/><line width="1" x1="1125" x2="1118" y1="600" y2="593" stroke="#000" transform="rotate(NaN, 1125, 600)"/><line width="1" x1="1125" x2="1118" y1="600" y2="607" stroke="#000" transform="rotate(NaN, 1125, 600)"/><line width="1" x1="1125" x2="1132" y1="600" y2="593" stroke="#000" transform="rotate(NaN, 1125, 600)"/><line width="1" x1="1125" x2="1132" y1="600" y2="607" stroke="#000" transform="rotate(NaN, 1125, 600)"/><text x="1125" y="597" fill="#000" font-size="15" text-anchor="middle" transform="rotate(NaN, 1125, 597)">27. answer.type = &quot;pranswer&quot;; pranswer = answer</text><line width="1" x1="1125" x2="1275" y1="620" y2="620" stroke="#000"/><line width="1" x1="1275" x2="1268" y1="620" y2="613" stroke="#000" transform="rotate(0, 1275, 620)"/><line width="1" x1="1275" x2="1268" y1="620" y2="627" stroke="#000" transform="rotate(0, 1275, 620)"/><text x="1128" y="617" fill="#000" font-size="15" text-anchor="start" transform="rotate(0, 1128, 617)">28. setLocalDescription(pranswer)</text><line width="1" x1="1125" x2="825" y1="640" y2="640" stroke="#000"/><line width="1" x1="825" x2="832" y1="640" y2="633" stroke="#000" transform="rotate(0, 825, 640)"/><line width="1" x1="825" x2="832" y1="640" y2="647" stroke="#000" transform="rotate(0, 825, 640)"/><text x="1122" y="637" fill="#000" font-size="15" text-anchor="end" transform="rotate(0, 1122, 637)">29. pranswer</text><line width="1" x1="1275" x2="1425" y1="640" y2="640" stroke="#000"/><line width="1" x1="1425" x2="1418" y1="640" y2="633" stroke="#000" transform="rotate(0, 1425, 640)"/><line width="1" x1="1425" x2="1418" y1="640" y2="647" stroke="#000" transform="rotate(0, 1425, 640)"/><text x="1278" y="637" fill="#000" font-size="15" text-anchor="start" transform="rotate(0, 1278, 637)">30. Permission</text><line width="1" x1="825" x2="675" y1="640" y2="640" stroke="#000"/><line width="1" x1="675" x2="682" y1="640" y2="633" stroke="#000" transform="rotate(0, 675, 640)"/><line width="1" x1="675" x2="682" y1="640" y2="647" stroke="#000" transform="rotate(0, 675, 640)"/><text x="822" y="637" fill="#000" font-size="15" text-anchor="end" transform="rotate(0, 822, 637)">31. pranswer</text><line width="1" x1="675" x2="375" y1="640" y2="640" stroke="#000"/><line width="1" x1="375" x2="382" y1="640" y2="633" stroke="#000" transform="rotate(0, 375, 640)"/><line width="1" x1="375" x2="382" y1="640" y2="647" stroke="#000" transform="rotate(0, 375, 640)"/><text x="672" y="637" fill="#000" font-size="15" text-anchor="end" transform="rotate(0, 672, 637)">32. pranswer</text><line width="1" x1="375" x2="225" y1="660" y2="660" stroke="#000"/><line width="1" x1="225" x2="232" y1="660" y2="653" stroke="#000" transform="rotate(0, 225, 660)"/><line width="1" x1="225" x2="232" y1="660" y2="667" stroke="#000" transform="rotate(0, 225, 660)"/><text x="372" y="657" fill="#000" font-size="15" text-anchor="end" transform="rotate(0, 372, 657)">33. setRemoteDescription(pranswer)</text><line width="1" x1="225" x2="75" y1="680" y2="680" stroke="#000"/><line width="1" x1="75" x2="82" y1="680" y2="673" stroke="#000" transform="rotate(0, 75, 680)"/><line width="1" x1="75" x2="82" y1="680" y2="687" stroke="#000" transform="rotate(0, 75, 680)"/><text x="222" y="677" fill="#000" font-size="15" text-anchor="end" transform="rotate(0, 222, 677)">34. Permission</text><line width="1" x1="1275" x2="1425" y1="700" y2="700" stroke="#000"/><line width="1" x1="1425" x2="1418" y1="700" y2="693" stroke="#000" transform="rotate(0, 1425, 700)"/><line width="1" x1="1425" x2="1418" y1="700" y2="707" stroke="#000" transform="rotate(0, 1425, 700)"/><line width="1" x1="1275" x2="1282" y1="700" y2="693" stroke="#000" transform="rotate(0, 1275, 700)"/><line width="1" x1="1275" x2="1282" y1="700" y2="707" stroke="#000" transform="rotate(0, 1275, 700)"/><text x="1350" y="697" fill="#000" font-size="15" text-anchor="middle" transform="rotate(0, 1350, 697)">35. ICE Check</text><line width="1" x1="1425" x2="225" y1="720" y2="720" stroke="#000"/><line width="1" x1="1425" x2="1418" y1="720" y2="713" stroke="#000" transform="rotate(0, 1425, 720)"/><line width="1" x1="1425" x2="1418" y1="720" y2="727" stroke="#000" transform="rotate(0, 1425, 720)"/><line width="1" x1="225" x2="232" y1="720" y2="713" stroke="#000" transform="rotate(0, 225, 720)"/><line width="1" x1="225" x2="232" y1="720" y2="727" stroke="#000" transform="rotate(0, 225, 720)"/><text x="825" y="717" fill="#000" font-size="15" text-anchor="middle" transform="rotate(0, 825, 717)">36. ICE Check</text><line width="1" x1="1275" x2="1425" y1="740" y2="740" stroke="#000"/><line width="1" x1="1425" x2="1418" y1="740" y2="733" stroke="#000" transform="rotate(0, 1425, 740)"/><line width="1" x1="1425" x2="1418" y1="740" y2="747" stroke="#000" transform="rotate(0, 1425, 740)"/><line width="1" x1="1275" x2="1282" y1="740" y2="733" stroke="#000" transform="rotate(0, 1275, 740)"/><line width="1" x1="1275" x2="1282" y1="740" y2="747" stroke="#000" transform="rotate(0, 1275, 740)"/><text x="1350" y="737" fill="#000" font-size="15" text-anchor="middle" transform="rotate(0, 1350, 737)">37. DTLS</text><line width="1" x1="1425" x2="225" y1="760" y2="760" stroke="#000"/><line width="1" x1="1425" x2="1418" y1="760" y2="753" stroke="#000" transform="rotate(0, 1425, 760)"/><line width="1" x1="1425" x2="1418" y1="760" y2="767" stroke="#000" transform="rotate(0, 1425, 760)"/><line width="1" x1="225" x2="232" y1="760" y2="753" stroke="#000" transform="rotate(0, 225, 760)"/><line width="1" x1="225" x2="232" y1="760" y2="767" stroke="#000" transform="rotate(0, 225, 760)"/><text x="825" y="757" fill="#000" font-size="15" text-anchor="middle" transform="rotate(0, 825, 757)">38. DTLS</text><line width="1" x1="1275" x2="1425" y1="780" y2="780" stroke="#000"/><line width="1" x1="1425" x2="1418" y1="780" y2="773" stroke="#000" transform="rotate(0, 1425, 780)"/><line width="1" x1="1425" x2="1418" y1="780" y2="787" stroke="#000" transform="rotate(0, 1425, 780)"/><line width="1" x1="1275" x2="1282" y1="780" y2="773" stroke="#000" transform="rotate(0, 1275, 780)"/><line width="1" x1="1275" x2="1282" y1="780" y2="787" stroke="#000" transform="rotate(0, 1275, 780)"/><text x="1350" y="777" fill="#000" font-size="15" text-anchor="middle" transform="rotate(0, 1350, 777)">39. SCTP/Data</text><line width="1" x1="1425" x2="225" y1="800" y2="800" stroke="#000"/><line width="1" x1="1425" x2="1418" y1="800" y2="793" stroke="#000" transform="rotate(0, 1425, 800)"/><line width="1" x1="1425" x2="1418" y1="800" y2="807" stroke="#000" transform="rotate(0, 1425, 800)"/><line width="1" x1="225" x2="232" y1="800" y2="793" stroke="#000" transform="rotate(0, 225, 800)"/><line width="1" x1="225" x2="232" y1="800" y2="807" stroke="#000" transform="rotate(0, 225, 800)"/><text x="825" y="797" fill="#000" font-size="15" text-anchor="middle" transform="rotate(0, 825, 797)">40. SCTP/Data</text><line width="1" x1="1275" x2="1125" y1="820" y2="820" stroke="#000"/><line width="1" x1="1125" x2="1132" y1="820" y2="813" stroke="#000" transform="rotate(0, 1125, 820)"/><line width="1" x1="1125" x2="1132" y1="820" y2="827" stroke="#000" transform="rotate(0, 1125, 820)"/><text x="1272" y="817" fill="#000" font-size="15" text-anchor="end" transform="rotate(0, 1272, 817)">41. event: &quot;datachannel&quot;</text><line width="1" x1="975" x2="1125" y1="840" y2="840" stroke="#000"/><line width="1" x1="1125" x2="1118" y1="840" y2="833" stroke="#000" transform="rotate(0, 1125, 840)"/><line width="1" x1="1125" x2="1118" y1="840" y2="847" stroke="#000" transform="rotate(0, 1125, 840)"/><text x="978" y="837" fill="#000" font-size="15" text-anchor="start" transform="rotate(0, 978, 837)">42. Accept Audio and Video</text><line width="1" x1="1125" x2="1275" y1="860" y2="860" stroke="#000"/><line width="1" x1="1275" x2="1268" y1="860" y2="853" stroke="#000" transform="rotate(0, 1275, 860)"/><line width="1" x1="1275" x2="1268" y1="860" y2="867" stroke="#000" transform="rotate(0, 1275, 860)"/><text x="1128" y="857" fill="#000" font-size="15" text-anchor="start" transform="rotate(0, 1128, 857)">43. addStream(stream)</text><line width="1" x1="1125" x2="1275" y1="880" y2="880" stroke="#000"/><line width="1" x1="1275" x2="1268" y1="880" y2="873" stroke="#000" transform="rotate(0, 1275, 880)"/><line width="1" x1="1275" x2="1268" y1="880" y2="887" stroke="#000" transform="rotate(0, 1275, 880)"/><text x="1128" y="877" fill="#000" font-size="15" text-anchor="start" transform="rotate(0, 1128, 877)">44. createAnswer(gotAnswer)</text><line width="1" x1="1275" x2="1125" y1="900" y2="900" stroke="#000"/><line width="1" x1="1125" x2="1132" y1="900" y2="893" stroke="#000" transform="rotate(0, 1125, 900)"/><line width="1" x1="1125" x2="1132" y1="900" y2="907" stroke="#000" transform="rotate(0, 1125, 900)"/><text x="1272" y="897" fill="#000" font-size="15" text-anchor="end" transform="rotate(0, 1272, 897)">45. callback: gotAnswer(answer)</text><line width="1" x1="1125" x2="1275" y1="920" y2="920" stroke="#000"/><line width="1" x1="1275" x2="1268" y1="920" y2="913" stroke="#000" transform="rotate(0, 1275, 920)"/><line width="1" x1="1275" x2="1268" y1="920" y2="927" stroke="#000" transform="rotate(0, 1275, 920)"/><text x="1128" y="917" fill="#000" font-size="15" text-anchor="start" transform="rotate(0, 1128, 917)">46. setLocalDescription(answer)</text><line width="1" x1="1125" x2="825" y1="940" y2="940" stroke="#000"/><line width="1" x1="825" x2="832" y1="940" y2="933" stroke="#000" transform="rotate(0, 825, 940)"/><line width="1" x1="825" x2="832" y1="940" y2="947" stroke="#000" transform="rotate(0, 825, 940)"/><text x="1122" y="937" fill="#000" font-size="15" text-anchor="end" transform="rotate(0, 1122, 937)">47. answer</text><line width="1" x1="1275" x2="1425" y1="960" y2="960" stroke="#000"/><line width="1" x1="1425" x2="1418" y1="960" y2="953" stroke="#000" transform="rotate(0, 1425, 960)"/><line width="1" x1="1425" x2="1418" y1="960" y2="967" stroke="#000" transform="rotate(0, 1425, 960)"/><line width="1" x1="1275" x2="1282" y1="960" y2="953" stroke="#000" transform="rotate(0, 1275, 960)"/><line width="1" x1="1275" x2="1282" y1="960" y2="967" stroke="#000" transform="rotate(0, 1275, 960)"/><text x="1350" y="957" fill="#000" font-size="15" text-anchor="middle" transform="rotate(0, 1350, 957)">48. SRTP</text><line width="1" x1="1425" x2="225" y1="980" y2="980" stroke="#000"/><line width="1" x1="1425" x2="1418" y1="980" y2="973" stroke="#000" transform="rotate(0, 1425, 980)"/><line width="1" x1="1425" x2="1418" y1="980" y2="987" stroke="#000" transform="rotate(0, 1425, 980)"/><line width="1" x1="225" x2="232" y1="980" y2="973" stroke="#000" transform="rotate(0, 225, 980)"/><line width="1" x1="225" x2="232" y1="980" y2="987" stroke="#000" transform="rotate(0, 225, 980)"/><text x="825" y="977" fill="#000" font-size="15" text-anchor="middle" transform="rotate(0, 825, 977)">49. SRTP</text><line width="1" x1="1275" x2="225" y1="1000" y2="1000" stroke="#000"/><line width="1" x1="1275" x2="1268" y1="1000" y2="993" stroke="#000" transform="rotate(0, 1275, 1000)"/><line width="1" x1="1275" x2="1268" y1="1000" y2="1007" stroke="#000" transform="rotate(0, 1275, 1000)"/><line width="1" x1="225" x2="232" y1="1000" y2="993" stroke="#000" transform="rotate(0, 225, 1000)"/><line width="1" x1="225" x2="232" y1="1000" y2="1007" stroke="#000" transform="rotate(0, 225, 1000)"/><text x="750" y="997" fill="#000" font-size="15" text-anchor="middle" transform="rotate(0, 750, 997)">50. ICE Check</text><line width="1" x1="1275" x2="225" y1="1020" y2="1020" stroke="#000"/><line width="1" x1="1275" x2="1268" y1="1020" y2="1013" stroke="#000" transform="rotate(0, 1275, 1020)"/><line width="1" x1="1275" x2="1268" y1="1020" y2="1027" stroke="#000" transform="rotate(0, 1275, 1020)"/><line width="1" x1="225" x2="232" y1="1020" y2="1013" stroke="#000" transform="rotate(0, 225, 1020)"/><line width="1" x1="225" x2="232" y1="1020" y2="1027" stroke="#000" transform="rotate(0, 225, 1020)"/><text x="750" y="1017" fill="#000" font-size="15" text-anchor="middle" transform="rotate(0, 750, 1017)">51. SRTP without relay</text><line width="1" x1="825" x2="675" y1="940" y2="1040" stroke="#000"/><line width="1" x1="675" x2="682" y1="1040" y2="1033" stroke="#000" transform="rotate(-33.70715561737648, 675, 1040)"/><line width="1" x1="675" x2="682" y1="1040" y2="1047" stroke="#000" transform="rotate(-33.70715561737648, 675, 1040)"/><text x="822" y="937" fill="#000" font-size="15" text-anchor="end" transform="rotate(-33.70715561737648, 822, 937)">52. answer</text><line width="1" x1="675" x2="375" y1="1060" y2="1060" stroke="#000"/><line width="1" x1="375" x2="382" y1="1060" y2="1053" stroke="#000" transform="rotate(0, 375, 1060)"/><line width="1" x1="375" x2="382" y1="1060" y2="1067" stroke="#000" transform="rotate(0, 375, 1060)"/><text x="672" y="1057" fill="#000" font-size="15" text-anchor="end" transform="rotate(0, 672, 1057)">53. answer</text><line width="1" x1="375" x2="225" y1="1080" y2="1080" stroke="#000"/><line width="1" x1="225" x2="232" y1="1080" y2="1073" stroke="#000" transform="rotate(0, 225, 1080)"/><line width="1" x1="225" x2="232" y1="1080" y2="1087" stroke="#000" transform="rotate(0, 225, 1080)"/><text x="372" y="1077" fill="#000" font-size="15" text-anchor="end" transform="rotate(0, 372, 1077)">54. setRemoteDescription(answer)</text><line width="1" x1="225" x2="375" y1="1100" y2="1100" stroke="#000"/><line width="1" x1="375" x2="368" y1="1100" y2="1093" stroke="#000" transform="rotate(0, 375, 1100)"/><line width="1" x1="375" x2="368" y1="1100" y2="1107" stroke="#000" transform="rotate(0, 375, 1100)"/><text x="228" y="1097" fill="#000" font-size="15" text-anchor="start" transform="rotate(0, 228, 1097)">55. event: &quot;addstream&quot; with remoteStream</text><line width="1" x1="975" x2="1125" y1="1120" y2="1120" stroke="#000"/><line width="1" x1="1125" x2="1118" y1="1120" y2="1113" stroke="#000" transform="rotate(0, 1125, 1120)"/><line width="1" x1="1125" x2="1118" y1="1120" y2="1127" stroke="#000" transform="rotate(0, 1125, 1120)"/><text x="978" y="1117" fill="#000" font-size="15" text-anchor="start" transform="rotate(0, 978, 1117)">56. Add document camera</text><line width="1" x1="1125" x2="1275" y1="1140" y2="1140" stroke="#000"/><line width="1" x1="1275" x2="1268" y1="1140" y2="1133" stroke="#000" transform="rotate(0, 1275, 1140)"/><line width="1" x1="1275" x2="1268" y1="1140" y2="1147" stroke="#000" transform="rotate(0, 1275, 1140)"/><text x="1128" y="1137" fill="#000" font-size="15" text-anchor="start" transform="rotate(0, 1128, 1137)">57. addStream(docStream)</text><line width="1" x1="1275" x2="1125" y1="1160" y2="1160" stroke="#000"/><line width="1" x1="1125" x2="1132" y1="1160" y2="1153" stroke="#000" transform="rotate(0, 1125, 1160)"/><line width="1" x1="1125" x2="1132" y1="1160" y2="1167" stroke="#000" transform="rotate(0, 1125, 1160)"/><text x="1272" y="1157" fill="#000" font-size="15" text-anchor="end" transform="rotate(0, 1272, 1157)">58. event: &quot;negotationneeded&quot;</text><line width="1" x1="1125" x2="1275" y1="1180" y2="1180" stroke="#000"/><line width="1" x1="1275" x2="1268" y1="1180" y2="1173" stroke="#000" transform="rotate(0, 1275, 1180)"/><line width="1" x1="1275" x2="1268" y1="1180" y2="1187" stroke="#000" transform="rotate(0, 1275, 1180)"/><text x="1128" y="1177" fill="#000" font-size="15" text-anchor="start" transform="rotate(0, 1128, 1177)">59. createOffer(gotOffer)</text><line width="1" x1="1275" x2="1125" y1="1200" y2="1200" stroke="#000"/><line width="1" x1="1125" x2="1132" y1="1200" y2="1193" stroke="#000" transform="rotate(0, 1125, 1200)"/><line width="1" x1="1125" x2="1132" y1="1200" y2="1207" stroke="#000" transform="rotate(0, 1125, 1200)"/><text x="1272" y="1197" fill="#000" font-size="15" text-anchor="end" transform="rotate(0, 1272, 1197)">60. callbakc: gotOffer(offer)</text><line width="1" x1="1125" x2="1275" y1="1220" y2="1220" stroke="#000"/><line width="1" x1="1275" x2="1268" y1="1220" y2="1213" stroke="#000" transform="rotate(0, 1275, 1220)"/><line width="1" x1="1275" x2="1268" y1="1220" y2="1227" stroke="#000" transform="rotate(0, 1275, 1220)"/><text x="1128" y="1217" fill="#000" font-size="15" text-anchor="start" transform="rotate(0, 1128, 1217)">61. setLocalDescription(offer)</text><line width="1" x1="1125" x2="825" y1="1240" y2="1240" stroke="#000"/><line width="1" x1="825" x2="832" y1="1240" y2="1233" stroke="#000" transform="rotate(0, 825, 1240)"/><line width="1" x1="825" x2="832" y1="1240" y2="1247" stroke="#000" transform="rotate(0, 825, 1240)"/><text x="1122" y="1237" fill="#000" font-size="15" text-anchor="end" transform="rotate(0, 1122, 1237)">62. offer</text><line width="1" x1="825" x2="675" y1="1240" y2="1240" stroke="#000"/><line width="1" x1="675" x2="682" y1="1240" y2="1233" stroke="#000" transform="rotate(0, 675, 1240)"/><line width="1" x1="675" x2="682" y1="1240" y2="1247" stroke="#000" transform="rotate(0, 675, 1240)"/><text x="822" y="1237" fill="#000" font-size="15" text-anchor="end" transform="rotate(0, 822, 1237)">63. offer</text><line width="1" x1="675" x2="375" y1="1240" y2="1240" stroke="#000"/><line width="1" x1="375" x2="382" y1="1240" y2="1233" stroke="#000" transform="rotate(0, 375, 1240)"/><line width="1" x1="375" x2="382" y1="1240" y2="1247" stroke="#000" transform="rotate(0, 375, 1240)"/><text x="672" y="1237" fill="#000" font-size="15" text-anchor="end" transform="rotate(0, 672, 1237)">64. offer</text><line width="1" x1="375" x2="225" y1="1260" y2="1260" stroke="#000"/><line width="1" x1="225" x2="232" y1="1260" y2="1253" stroke="#000" transform="rotate(0, 225, 1260)"/><line width="1" x1="225" x2="232" y1="1260" y2="1267" stroke="#000" transform="rotate(0, 225, 1260)"/><text x="372" y="1257" fill="#000" font-size="15" text-anchor="end" transform="rotate(0, 372, 1257)">65. setRemoteDescription(offer)</text><line width="1" x1="225" x2="375" y1="1280" y2="1280" stroke="#000"/><line width="1" x1="375" x2="368" y1="1280" y2="1273" stroke="#000" transform="rotate(0, 375, 1280)"/><line width="1" x1="375" x2="368" y1="1280" y2="1287" stroke="#000" transform="rotate(0, 375, 1280)"/><text x="228" y="1277" fill="#000" font-size="15" text-anchor="start" transform="rotate(0, 228, 1277)">66. event: &quot;addstream&quot; with docStream</text><line width="1" x1="375" x2="225" y1="1300" y2="1300" stroke="#000"/><line width="1" x1="225" x2="232" y1="1300" y2="1293" stroke="#000" transform="rotate(0, 225, 1300)"/><line width="1" x1="225" x2="232" y1="1300" y2="1307" stroke="#000" transform="rotate(0, 225, 1300)"/><text x="372" y="1297" fill="#000" font-size="15" text-anchor="end" transform="rotate(0, 372, 1297)">67. createAnswer(gotAnswer)</text><line width="1" x1="225" x2="375" y1="1320" y2="1320" stroke="#000"/><line width="1" x1="375" x2="368" y1="1320" y2="1313" stroke="#000" transform="rotate(0, 375, 1320)"/><line width="1" x1="375" x2="368" y1="1320" y2="1327" stroke="#000" transform="rotate(0, 375, 1320)"/><text x="228" y="1317" fill="#000" font-size="15" text-anchor="start" transform="rotate(0, 228, 1317)">68. callback: gotAnswer(answer)</text><line width="1" x1="375" x2="675" y1="1340" y2="1340" stroke="#000"/><line width="1" x1="675" x2="668" y1="1340" y2="1333" stroke="#000" transform="rotate(0, 675, 1340)"/><line width="1" x1="675" x2="668" y1="1340" y2="1347" stroke="#000" transform="rotate(0, 675, 1340)"/><text x="378" y="1337" fill="#000" font-size="15" text-anchor="start" transform="rotate(0, 378, 1337)">69. answer</text><line width="1" x1="675" x2="825" y1="1340" y2="1340" stroke="#000"/><line width="1" x1="825" x2="818" y1="1340" y2="1333" stroke="#000" transform="rotate(0, 825, 1340)"/><line width="1" x1="825" x2="818" y1="1340" y2="1347" stroke="#000" transform="rotate(0, 825, 1340)"/><text x="678" y="1337" fill="#000" font-size="15" text-anchor="start" transform="rotate(0, 678, 1337)">70. answer</text><line width="1" x1="825" x2="1125" y1="1340" y2="1340" stroke="#000"/><line width="1" x1="1125" x2="1118" y1="1340" y2="1333" stroke="#000" transform="rotate(0, 1125, 1340)"/><line width="1" x1="1125" x2="1118" y1="1340" y2="1347" stroke="#000" transform="rotate(0, 1125, 1340)"/><text x="828" y="1337" fill="#000" font-size="15" text-anchor="start" transform="rotate(0, 828, 1337)">71. answer</text><line width="1" x1="1125" x2="1275" y1="1360" y2="1360" stroke="#000"/><line width="1" x1="1275" x2="1268" y1="1360" y2="1353" stroke="#000" transform="rotate(0, 1275, 1360)"/><line width="1" x1="1275" x2="1268" y1="1360" y2="1367" stroke="#000" transform="rotate(0, 1275, 1360)"/><text x="1128" y="1357" fill="#000" font-size="15" text-anchor="start" transform="rotate(0, 1128, 1357)">72. setRemoteDescription(answer);</text></svg>